<mxfile host="app.diagrams.net" agent="Mozilla/5.0 (Windows NT 10.0; Win64; x64) AppleWebKit/537.36 (KHTML, like Gecko) Chrome/140.0.0.0 Safari/537.36" version="28.2.3">
  <diagram name="Page-1" id="z6DGC48NnpeHqriAHGPg">
    <mxGraphModel dx="6255" dy="4400" grid="1" gridSize="10" guides="1" tooltips="1" connect="1" arrows="1" fold="1" page="1" pageScale="1" pageWidth="850" pageHeight="1100" math="0" shadow="0">
      <root>
        <mxCell id="0" />
        <mxCell id="1" parent="0" />
        <mxCell id="sXJf7j9ku1CoHAVVAAhq-13" value="" style="rounded=0;whiteSpace=wrap;html=1;fillColor=light-dark(#f5f5f5, #ffffff);strokeColor=#666666;gradientColor=light-dark(#b3b3b3, #ffffff);" vertex="1" parent="1">
          <mxGeometry x="660" y="-760" width="2350" height="1460" as="geometry" />
        </mxCell>
        <mxCell id="sXJf7j9ku1CoHAVVAAhq-15" style="edgeStyle=orthogonalEdgeStyle;rounded=0;orthogonalLoop=1;jettySize=auto;html=1;" edge="1" parent="1" target="sXJf7j9ku1CoHAVVAAhq-13">
          <mxGeometry relative="1" as="geometry">
            <mxPoint x="1835" y="-680" as="sourcePoint" />
          </mxGeometry>
        </mxCell>
        <mxCell id="sXJf7j9ku1CoHAVVAAhq-17" value="" style="rounded=0;whiteSpace=wrap;html=1;fillColor=light-dark(#f5f5f5, #ffffff);strokeColor=#666666;gradientColor=light-dark(#b3b3b3, #ffffff);" vertex="1" parent="1">
          <mxGeometry x="660" y="-760" width="2350" height="90" as="geometry" />
        </mxCell>
        <mxCell id="sXJf7j9ku1CoHAVVAAhq-18" value="&lt;font style=&quot;color: light-dark(rgb(0, 0, 0), rgb(0, 0, 0)); font-size: 33px;&quot;&gt;Titel&lt;/font&gt;" style="text;html=1;align=center;verticalAlign=middle;whiteSpace=wrap;rounded=0;" vertex="1" parent="1">
          <mxGeometry x="670" y="-750" width="200" height="60" as="geometry" />
        </mxCell>
        <mxCell id="sXJf7j9ku1CoHAVVAAhq-20" value="&lt;font style=&quot;color: light-dark(rgb(0, 0, 0), rgb(0, 0, 0)); font-size: 33px;&quot;&gt;Titel&lt;/font&gt;" style="text;html=1;align=center;verticalAlign=middle;whiteSpace=wrap;rounded=0;" vertex="1" parent="1">
          <mxGeometry x="1330" y="-590" width="1010" height="70" as="geometry" />
        </mxCell>
        <mxCell id="sXJf7j9ku1CoHAVVAAhq-23" value="Lorem ipsum dolor sit amet, consectetur adipiscing elit, sed do eiusmod tempor incididunt ut labore et dolore magna aliqua. Ut enim ad minim veniam, quis nostrud exercitation ullamco laboris nisi ut aliquip ex ea commodo consequat. Duis aute irure dolor in reprehenderit in voluptate velit esse cillum dolore eu fugiat nulla pariatur. Excepteur sint occaecat cupidatat non proident, sunt in culpa qui officia deserunt mollit anim id est laborum." style="text;whiteSpace=wrap;fontColor=light-dark(#000000,#000000);align=center;fontSize=17;" vertex="1" parent="1">
          <mxGeometry x="1357.5" y="-520" width="955" height="120" as="geometry" />
        </mxCell>
        <mxCell id="sXJf7j9ku1CoHAVVAAhq-24" value="" style="rounded=0;whiteSpace=wrap;html=1;strokeWidth=1;fillColor=light-dark(#FFFFFF,#F2F2F2);strokeColor=light-dark(#000000,#0E0E0E);" vertex="1" parent="1">
          <mxGeometry x="1357.5" y="-400" width="962.5" height="720" as="geometry" />
        </mxCell>
        <mxCell id="sXJf7j9ku1CoHAVVAAhq-25" value="Lorem ipsum dolor sit amet, consectetur adipiscing elit, sed do eiusmod tempor incididunt ut labore et dolore magna aliqua. Ut enim ad minim veniam, quis nostrud exercitation ullamco laboris nisi ut aliquip ex ea commodo consequat. Duis aute irure dolor in reprehenderit in voluptate velit esse cillum dolore eu fugiat nulla pariatur. Excepteur sint occaecat cupidatat non proident, sunt in culpa qui officia deserunt mollit anim id est laborum.Lorem ipsum dolor sit amet, consectetur adipiscing elit, sed do eiusmod tempor incididunt ut labore et dolore magna aliqua. Ut enim ad minim veniam, quis nostrud exercitation ullamco laboris nisi ut aliquip ex ea commodo consequat. Duis aute irure dolor in reprehenderit in voluptate velit esse cillum dolore eu fugiat nulla pariatur. Excepteur sint occaecat cupidatat non proident, sunt in culpa qui officia deserunt mollit anim id est laborum.Lorem ipsum dolor sit amet, consectetur adipiscing elit, sed do eiusmod tempor incididunt ut labore et dolore magna aliqua. Ut enim ad minim veniam, quis nostrud exercitation ullamco laboris nisi ut aliquip ex ea commodo consequat. Duis aute irure dolor in reprehenderit in voluptate velit esse cillum dolore eu fugiat nulla pariatur. Excepteur sint occaecat cupidatat non proident, sunt in culpa qui officia deserunt mollit anim id est laborum." style="text;whiteSpace=wrap;fontColor=light-dark(#000000,#000000);align=center;fontSize=17;" vertex="1" parent="1">
          <mxGeometry x="1370" y="-350" width="368.75" height="660" as="geometry" />
        </mxCell>
        <mxCell id="sXJf7j9ku1CoHAVVAAhq-26" value="" style="rounded=0;whiteSpace=wrap;html=1;strokeWidth=1;fillColor=light-dark(#FFFFFF,#F2F2F2);strokeColor=light-dark(#000000,#151515);" vertex="1" parent="1">
          <mxGeometry x="1820" y="-350" width="430" height="600" as="geometry" />
        </mxCell>
        <mxCell id="sXJf7j9ku1CoHAVVAAhq-27" value="&lt;font style=&quot;color: light-dark(rgb(0, 0, 0), rgb(0, 0, 0)); font-size: 20px;&quot;&gt;login&lt;/font&gt;" style="rounded=0;whiteSpace=wrap;html=1;strokeWidth=1;fillColor=light-dark(#FFFFFF,#F2F2F2);strokeColor=light-dark(#000000,#151515);" vertex="1" parent="1">
          <mxGeometry x="1970" y="-65" width="130" height="50" as="geometry" />
        </mxCell>
        <mxCell id="sXJf7j9ku1CoHAVVAAhq-29" value="&lt;font style=&quot;color: light-dark(rgb(0, 0, 0), rgb(0, 0, 0)); font-size: 20px;&quot;&gt;register&lt;/font&gt;" style="rounded=0;whiteSpace=wrap;html=1;strokeWidth=1;fillColor=light-dark(#FFFFFF,#F2F2F2);strokeColor=light-dark(#000000,#151515);" vertex="1" parent="1">
          <mxGeometry x="1970" width="130" height="50" as="geometry" />
        </mxCell>
        <mxCell id="sXJf7j9ku1CoHAVVAAhq-31" value="Lorem ipsum dolor sit amet, consectetur adipiscing elit, sed do eiusmod tempor incididunt ut labore et dolore magna aliqua. Ut enim ad minim veniam, quis nostrud exercitation ullamco laboris nisi ut aliquip ex ea commodo consequat. Duis aute irure dolor in reprehenderit in voluptate velit esse cillum dolore eu fugiat nulla pariatur. Excepteur sint occaecat cupidatat non proident, sunt in culpa qui officia deserunt mollit anim id est laborum." style="text;whiteSpace=wrap;fontColor=light-dark(#000000,#000000);align=center;fontSize=17;" vertex="1" parent="1">
          <mxGeometry x="1850" y="-340" width="370" height="70" as="geometry" />
        </mxCell>
        <mxCell id="sXJf7j9ku1CoHAVVAAhq-32" value="&lt;font style=&quot;color: light-dark(rgb(0, 0, 0), rgb(0, 0, 0)); font-size: 20px;&quot;&gt;About&lt;/font&gt;" style="rounded=0;whiteSpace=wrap;html=1;strokeWidth=1;fillColor=light-dark(#FFFFFF,#F2F2F2);strokeColor=light-dark(#000000,#151515);" vertex="1" parent="1">
          <mxGeometry x="1970" y="170" width="130" height="50" as="geometry" />
        </mxCell>
        <mxCell id="sXJf7j9ku1CoHAVVAAhq-33" value="&lt;font style=&quot;color: light-dark(rgb(0, 0, 0), rgb(0, 0, 0)); font-size: 20px;&quot;&gt;login&lt;/font&gt;" style="rounded=0;whiteSpace=wrap;html=1;strokeWidth=1;fillColor=light-dark(#FFFFFF,#F2F2F2);strokeColor=light-dark(#000000,#151515);" vertex="1" parent="1">
          <mxGeometry x="2845" y="-740" width="130" height="50" as="geometry" />
        </mxCell>
        <mxCell id="sXJf7j9ku1CoHAVVAAhq-47" value="" style="rounded=0;whiteSpace=wrap;html=1;fillColor=light-dark(#f5f5f5, #ffffff);strokeColor=#666666;gradientColor=light-dark(#b3b3b3, #ffffff);" vertex="1" parent="1">
          <mxGeometry x="3104.5" y="-770" width="2350" height="1460" as="geometry" />
        </mxCell>
        <mxCell id="sXJf7j9ku1CoHAVVAAhq-48" style="edgeStyle=orthogonalEdgeStyle;rounded=0;orthogonalLoop=1;jettySize=auto;html=1;" edge="1" parent="1" target="sXJf7j9ku1CoHAVVAAhq-47">
          <mxGeometry relative="1" as="geometry">
            <mxPoint x="4279.5" y="-690" as="sourcePoint" />
          </mxGeometry>
        </mxCell>
        <mxCell id="sXJf7j9ku1CoHAVVAAhq-49" value="" style="rounded=0;whiteSpace=wrap;html=1;fillColor=light-dark(#f5f5f5, #ffffff);strokeColor=#666666;gradientColor=light-dark(#b3b3b3, #ffffff);" vertex="1" parent="1">
          <mxGeometry x="3104.5" y="-770" width="2350" height="90" as="geometry" />
        </mxCell>
        <mxCell id="sXJf7j9ku1CoHAVVAAhq-50" value="&lt;font style=&quot;color: light-dark(rgb(0, 0, 0), rgb(0, 0, 0)); font-size: 33px;&quot;&gt;Titel&lt;/font&gt;" style="text;html=1;align=center;verticalAlign=middle;whiteSpace=wrap;rounded=0;" vertex="1" parent="1">
          <mxGeometry x="3114.5" y="-760" width="200" height="60" as="geometry" />
        </mxCell>
        <mxCell id="sXJf7j9ku1CoHAVVAAhq-51" value="&lt;font style=&quot;color: light-dark(rgb(0, 0, 0), rgb(0, 0, 0)); font-size: 33px;&quot;&gt;Titel&lt;/font&gt;" style="text;html=1;align=center;verticalAlign=middle;whiteSpace=wrap;rounded=0;" vertex="1" parent="1">
          <mxGeometry x="3774.5" y="-600" width="1010" height="70" as="geometry" />
        </mxCell>
        <mxCell id="sXJf7j9ku1CoHAVVAAhq-52" value="Lorem ipsum dolor sit amet, consectetur adipiscing elit, sed do eiusmod tempor incididunt ut labore et dolore magna aliqua." style="text;whiteSpace=wrap;fontColor=light-dark(#000000,#000000);align=center;fontSize=17;" vertex="1" parent="1">
          <mxGeometry x="3809.5" y="-510" width="955" height="120" as="geometry" />
        </mxCell>
        <mxCell id="sXJf7j9ku1CoHAVVAAhq-53" value="" style="rounded=0;whiteSpace=wrap;html=1;strokeWidth=1;fillColor=light-dark(#FFFFFF,#F2F2F2);strokeColor=light-dark(#000000,#0E0E0E);" vertex="1" parent="1">
          <mxGeometry x="3802" y="-410" width="962.5" height="720" as="geometry" />
        </mxCell>
        <mxCell id="sXJf7j9ku1CoHAVVAAhq-54" value="Lorem ipsum dolor sit amet, consectetur adipiscing elit, sed do eiusmod tempor incididunt ut labore et dolore magna aliqua. Ut enim ad minim veniam, quis nostrud exercitation ullamco laboris nisi ut aliquip ex ea commodo consequat. Duis aute irure dolor in reprehenderit in voluptate velit esse cillum dolore eu fugiat nulla pariatur. Excepteur sint occaecat cupidatat non proident, sunt in culpa qui officia deserunt mollit anim id est laborum.Lorem ipsum dolor sit amet, consectetur adipiscing elit, sed do eiusmod tempor incididunt ut labore et dolore magna aliqua. Ut enim ad minim veniam, quis nostrud exercitation ullamco laboris nisi ut aliquip ex ea commodo consequat. Duis aute irure dolor in reprehenderit in voluptate velit esse cillum dolore eu fugiat nulla pariatur. Excepteur sint occaecat cupidatat non proident, sunt in culpa qui officia deserunt mollit anim id est laborum.Lorem ipsum dolor sit amet, consectetur adipiscing elit, sed do eiusmod tempor incididunt ut labore et dolore magna aliqua. Ut enim ad minim veniam, quis nostrud exercitation ullamco laboris nisi ut aliquip ex ea commodo consequat. Duis aute irure dolor in reprehenderit in voluptate velit esse cillum dolore eu fugiat nulla pariatur. Excepteur sint occaecat cupidatat non proident, sunt in culpa qui officia deserunt mollit anim id est laborum.&#xa;&#xa;&#xa;&#xa;&#xa;&#xa;&#xa;Lorem ipsum dolor sit amet, consectetur adipiscing elit, sed do eiusmod tempor incididunt ut labore et dolore magna aliqua. Ut enim ad minim veniam, quis nostrud exercitation ullamco laboris nisi ut aliquip ex ea commodo consequat. Duis aute irure dolor in reprehenderit in voluptate velit esse cillum dolore eu fugiat nulla pariatur. Excepteur sint occaecat cupidatat non proident, sunt in culpa qui officia deserunt mollit anim id est laborum.Lorem ipsum dolor sit amet, consectetur adipiscing elit, sed do eiusmod tempor incididunt ut labore et dolore magna aliqua. Ut enim ad minim veniam, quis nostrud exercitation ullamco laboris nisi ut aliquip ex ea commodo consequat. Duis aute irure dolor in reprehenderit in voluptate velit esse cillum dolore eu fugiat nulla pariatur. Excepteur sint occaecat cupidatat non proident, sunt in culpa qui officia deserunt mollit anim id est laborum.Lorem ipsum dolor sit amet, consectetur adipiscing elit, sed do eiusmod tempor incididunt ut labore et dolore magna aliqua. Ut enim ad minim veniam, quis nostrud exercitation ullamco laboris nisi ut aliquip ex ea commodo consequat. Duis aute irure dolor in reprehenderit in voluptate velit esse cillum dolore eu fugiat nulla pariatur. Excepteur sint occaecat cupidatat non proident, sunt in culpa qui officia deserunt mollit anim id est laborum." style="text;whiteSpace=wrap;fontColor=light-dark(#000000,#000000);align=center;fontSize=17;" vertex="1" parent="1">
          <mxGeometry x="3824.5" y="-390" width="930" height="590" as="geometry" />
        </mxCell>
        <mxCell id="sXJf7j9ku1CoHAVVAAhq-59" value="&lt;font style=&quot;color: light-dark(rgb(0, 0, 0), rgb(0, 0, 0)); font-size: 20px;&quot;&gt;About&lt;/font&gt;" style="rounded=0;whiteSpace=wrap;html=1;strokeWidth=1;fillColor=light-dark(#FFFFFF,#F2F2F2);strokeColor=light-dark(#000000,#151515);" vertex="1" parent="1">
          <mxGeometry x="4218.25" y="220" width="130" height="50" as="geometry" />
        </mxCell>
        <mxCell id="sXJf7j9ku1CoHAVVAAhq-60" value="&lt;font style=&quot;color: light-dark(rgb(0, 0, 0), rgb(0, 0, 0)); font-size: 20px;&quot;&gt;USER&lt;/font&gt;" style="rounded=0;whiteSpace=wrap;html=1;strokeWidth=1;fillColor=light-dark(#FFFFFF,#F2F2F2);strokeColor=light-dark(#000000,#151515);" vertex="1" parent="1">
          <mxGeometry x="5289.5" y="-750" width="130" height="50" as="geometry" />
        </mxCell>
        <mxCell id="sXJf7j9ku1CoHAVVAAhq-62" value="&lt;font style=&quot;color: light-dark(rgb(0, 0, 0), rgb(0, 0, 0)); font-size: 33px;&quot;&gt;klanten&lt;/font&gt;" style="text;html=1;align=center;verticalAlign=middle;whiteSpace=wrap;rounded=0;" vertex="1" parent="1">
          <mxGeometry x="3324.5" y="-760" width="200" height="60" as="geometry" />
        </mxCell>
        <mxCell id="sXJf7j9ku1CoHAVVAAhq-63" value="&lt;font style=&quot;color: light-dark(rgb(0, 0, 0), rgb(0, 0, 0)); font-size: 33px;&quot;&gt;films&lt;/font&gt;" style="text;html=1;align=center;verticalAlign=middle;whiteSpace=wrap;rounded=0;" vertex="1" parent="1">
          <mxGeometry x="3534.5" y="-755" width="200" height="60" as="geometry" />
        </mxCell>
        <mxCell id="sXJf7j9ku1CoHAVVAAhq-64" value="&lt;font style=&quot;color: light-dark(rgb(0, 0, 0), rgb(0, 0, 0)); font-size: 33px;&quot;&gt;about&lt;/font&gt;" style="text;html=1;align=center;verticalAlign=middle;whiteSpace=wrap;rounded=0;" vertex="1" parent="1">
          <mxGeometry x="3749.5" y="-755" width="200" height="60" as="geometry" />
        </mxCell>
        <mxCell id="sXJf7j9ku1CoHAVVAAhq-65" value="&lt;font style=&quot;font-size: 40px;&quot;&gt;Homepagina - Niet ingelogd&lt;/font&gt;" style="text;html=1;align=center;verticalAlign=middle;whiteSpace=wrap;rounded=0;" vertex="1" parent="1">
          <mxGeometry x="1058.75" y="-890" width="1560" height="80" as="geometry" />
        </mxCell>
        <mxCell id="sXJf7j9ku1CoHAVVAAhq-66" value="&lt;font style=&quot;font-size: 40px;&quot;&gt;Homepagina - ingelogd&lt;/font&gt;" style="text;html=1;align=center;verticalAlign=middle;whiteSpace=wrap;rounded=0;" vertex="1" parent="1">
          <mxGeometry x="3503.25" y="-900" width="1560" height="80" as="geometry" />
        </mxCell>
        <mxCell id="sXJf7j9ku1CoHAVVAAhq-67" value="" style="rounded=0;whiteSpace=wrap;html=1;fillColor=light-dark(#f5f5f5, #ffffff);strokeColor=#666666;gradientColor=light-dark(#b3b3b3, #ffffff);" vertex="1" parent="1">
          <mxGeometry x="5534.5" y="-770" width="2350" height="1460" as="geometry" />
        </mxCell>
        <mxCell id="sXJf7j9ku1CoHAVVAAhq-68" style="edgeStyle=orthogonalEdgeStyle;rounded=0;orthogonalLoop=1;jettySize=auto;html=1;" edge="1" parent="1" target="sXJf7j9ku1CoHAVVAAhq-67">
          <mxGeometry relative="1" as="geometry">
            <mxPoint x="6709.5" y="-690" as="sourcePoint" />
          </mxGeometry>
        </mxCell>
        <mxCell id="sXJf7j9ku1CoHAVVAAhq-69" value="" style="rounded=0;whiteSpace=wrap;html=1;fillColor=light-dark(#f5f5f5, #ffffff);strokeColor=#666666;gradientColor=light-dark(#b3b3b3, #ffffff);" vertex="1" parent="1">
          <mxGeometry x="5534.5" y="-770" width="2350" height="90" as="geometry" />
        </mxCell>
        <mxCell id="sXJf7j9ku1CoHAVVAAhq-70" value="&lt;font style=&quot;color: light-dark(rgb(0, 0, 0), rgb(0, 0, 0)); font-size: 33px;&quot;&gt;Titel&lt;/font&gt;" style="text;html=1;align=center;verticalAlign=middle;whiteSpace=wrap;rounded=0;" vertex="1" parent="1">
          <mxGeometry x="5544.5" y="-760" width="200" height="60" as="geometry" />
        </mxCell>
        <mxCell id="sXJf7j9ku1CoHAVVAAhq-71" value="&lt;font style=&quot;color: light-dark(rgb(0, 0, 0), rgb(0, 0, 0));&quot;&gt;&lt;span style=&quot;font-size: 33px;&quot;&gt;Profiel&lt;/span&gt;&lt;/font&gt;" style="text;html=1;align=center;verticalAlign=middle;whiteSpace=wrap;rounded=0;" vertex="1" parent="1">
          <mxGeometry x="6204.5" y="-600" width="1010" height="70" as="geometry" />
        </mxCell>
        <mxCell id="sXJf7j9ku1CoHAVVAAhq-72" value="Lorem ipsum dolor sit amet, consectetur adipiscing elit, sed do eiusmod tempor incididunt ut labore et dolore magna aliqua." style="text;whiteSpace=wrap;fontColor=light-dark(#000000,#000000);align=center;fontSize=17;" vertex="1" parent="1">
          <mxGeometry x="6239.5" y="-510" width="955" height="120" as="geometry" />
        </mxCell>
        <mxCell id="sXJf7j9ku1CoHAVVAAhq-73" value="" style="rounded=0;whiteSpace=wrap;html=1;strokeWidth=1;fillColor=light-dark(#FFFFFF,#F2F2F2);strokeColor=light-dark(#000000,#0E0E0E);" vertex="1" parent="1">
          <mxGeometry x="6232" y="-410" width="962.5" height="720" as="geometry" />
        </mxCell>
        <mxCell id="sXJf7j9ku1CoHAVVAAhq-75" value="&lt;font style=&quot;color: light-dark(rgb(0, 0, 0), rgb(0, 0, 0)); font-size: 20px;&quot;&gt;terug&lt;/font&gt;" style="rounded=0;whiteSpace=wrap;html=1;strokeWidth=1;fillColor=light-dark(#FFFFFF,#F2F2F2);strokeColor=light-dark(#000000,#151515);" vertex="1" parent="1">
          <mxGeometry x="6254.5" y="220" width="480" height="60" as="geometry" />
        </mxCell>
        <mxCell id="sXJf7j9ku1CoHAVVAAhq-76" value="&lt;font style=&quot;color: light-dark(rgb(0, 0, 0), rgb(0, 0, 0)); font-size: 20px;&quot;&gt;USER&lt;/font&gt;" style="rounded=0;whiteSpace=wrap;html=1;strokeWidth=1;fillColor=light-dark(#FFFFFF,#F2F2F2);strokeColor=light-dark(#000000,#151515);" vertex="1" parent="1">
          <mxGeometry x="7719.5" y="-750" width="130" height="50" as="geometry" />
        </mxCell>
        <mxCell id="sXJf7j9ku1CoHAVVAAhq-77" value="&lt;font style=&quot;color: light-dark(rgb(0, 0, 0), rgb(0, 0, 0)); font-size: 33px;&quot;&gt;klanten&lt;/font&gt;" style="text;html=1;align=center;verticalAlign=middle;whiteSpace=wrap;rounded=0;" vertex="1" parent="1">
          <mxGeometry x="5754.5" y="-760" width="200" height="60" as="geometry" />
        </mxCell>
        <mxCell id="sXJf7j9ku1CoHAVVAAhq-78" value="&lt;font style=&quot;color: light-dark(rgb(0, 0, 0), rgb(0, 0, 0)); font-size: 33px;&quot;&gt;films&lt;/font&gt;" style="text;html=1;align=center;verticalAlign=middle;whiteSpace=wrap;rounded=0;" vertex="1" parent="1">
          <mxGeometry x="5964.5" y="-755" width="200" height="60" as="geometry" />
        </mxCell>
        <mxCell id="sXJf7j9ku1CoHAVVAAhq-79" value="&lt;font style=&quot;color: light-dark(rgb(0, 0, 0), rgb(0, 0, 0)); font-size: 33px;&quot;&gt;about&lt;/font&gt;" style="text;html=1;align=center;verticalAlign=middle;whiteSpace=wrap;rounded=0;" vertex="1" parent="1">
          <mxGeometry x="6179.5" y="-755" width="200" height="60" as="geometry" />
        </mxCell>
        <mxCell id="sXJf7j9ku1CoHAVVAAhq-82" value="&lt;font style=&quot;color: light-dark(rgb(0, 0, 0), rgb(0, 0, 0)); font-size: 19px;&quot;&gt;(bij klik komt er profiel en logout optie)&lt;/font&gt;" style="text;html=1;align=center;verticalAlign=middle;whiteSpace=wrap;rounded=0;" vertex="1" parent="1">
          <mxGeometry x="5199.5" y="-680" width="250" height="75" as="geometry" />
        </mxCell>
        <mxCell id="sXJf7j9ku1CoHAVVAAhq-83" value="&lt;font style=&quot;color: light-dark(rgb(0, 0, 0), rgb(0, 0, 0)); font-size: 19px;&quot;&gt;(bij klik komt er profiel en logout optie)&lt;/font&gt;" style="text;html=1;align=center;verticalAlign=middle;whiteSpace=wrap;rounded=0;" vertex="1" parent="1">
          <mxGeometry x="7634.5" y="-680" width="250" height="75" as="geometry" />
        </mxCell>
        <mxCell id="sXJf7j9ku1CoHAVVAAhq-84" value="&lt;font style=&quot;color: light-dark(rgb(0, 0, 0), rgb(0, 0, 0)); font-size: 20px;&quot;&gt;Profiel bewerken&lt;/font&gt;" style="rounded=0;whiteSpace=wrap;html=1;strokeWidth=1;fillColor=light-dark(#FFFFFF,#F2F2F2);strokeColor=light-dark(#000000,#151515);" vertex="1" parent="1">
          <mxGeometry x="6749.5" y="220" width="425" height="60" as="geometry" />
        </mxCell>
        <mxCell id="sXJf7j9ku1CoHAVVAAhq-85" value="&lt;font style=&quot;color: light-dark(rgb(0, 0, 0), rgb(0, 0, 0)); font-size: 20px;&quot;&gt;Gegevens&lt;/font&gt;" style="rounded=0;whiteSpace=wrap;html=1;strokeWidth=1;fillColor=light-dark(#FFFFFF,#F2F2F2);strokeColor=light-dark(#000000,#151515);" vertex="1" parent="1">
          <mxGeometry x="6254.5" y="-390" width="920" height="50" as="geometry" />
        </mxCell>
        <mxCell id="sXJf7j9ku1CoHAVVAAhq-86" value="&lt;span style=&quot;font-size: 20px;&quot;&gt;Gegevens&lt;/span&gt;" style="rounded=0;whiteSpace=wrap;html=1;strokeWidth=1;fillColor=light-dark(#FFFFFF,#F2F2F2);strokeColor=light-dark(#000000,#151515);fontColor=light-dark(#000000,#000000);" vertex="1" parent="1">
          <mxGeometry x="6257" y="-310" width="920" height="50" as="geometry" />
        </mxCell>
        <mxCell id="sXJf7j9ku1CoHAVVAAhq-87" value="&lt;span style=&quot;font-size: 20px;&quot;&gt;&lt;font style=&quot;color: light-dark(rgb(0, 0, 0), rgb(0, 0, 0));&quot;&gt;Gegevens&lt;/font&gt;&lt;/span&gt;" style="rounded=0;whiteSpace=wrap;html=1;strokeWidth=1;fillColor=light-dark(#FFFFFF,#F2F2F2);strokeColor=light-dark(#000000,#151515);" vertex="1" parent="1">
          <mxGeometry x="6257" y="-230" width="920" height="50" as="geometry" />
        </mxCell>
        <mxCell id="sXJf7j9ku1CoHAVVAAhq-88" value="&lt;span style=&quot;font-size: 20px;&quot;&gt;&lt;font style=&quot;color: light-dark(rgb(0, 0, 0), rgb(14, 14, 14));&quot;&gt;Gegevens&lt;/font&gt;&lt;/span&gt;" style="rounded=0;whiteSpace=wrap;html=1;strokeWidth=1;fillColor=light-dark(#FFFFFF,#F2F2F2);strokeColor=light-dark(#000000,#151515);" vertex="1" parent="1">
          <mxGeometry x="6249.5" y="-150" width="920" height="50" as="geometry" />
        </mxCell>
        <mxCell id="sXJf7j9ku1CoHAVVAAhq-89" value="&lt;font style=&quot;color: light-dark(rgb(14, 14, 14), rgb(0, 0, 0));&quot;&gt;&lt;span style=&quot;font-size: 20px;&quot;&gt;Andere informatie&lt;/span&gt;&lt;/font&gt;" style="rounded=0;whiteSpace=wrap;html=1;strokeWidth=1;fillColor=light-dark(#FFFFFF,#F2F2F2);strokeColor=light-dark(#000000,#151515);" vertex="1" parent="1">
          <mxGeometry x="6257" y="-15" width="920" height="165" as="geometry" />
        </mxCell>
        <mxCell id="sXJf7j9ku1CoHAVVAAhq-91" value="&lt;font style=&quot;font-size: 40px;&quot;&gt;Profiel pagina&lt;/font&gt;" style="text;html=1;align=center;verticalAlign=middle;whiteSpace=wrap;rounded=0;" vertex="1" parent="1">
          <mxGeometry x="5929.5" y="-890" width="1560" height="80" as="geometry" />
        </mxCell>
        <mxCell id="sXJf7j9ku1CoHAVVAAhq-92" value="" style="rounded=0;whiteSpace=wrap;html=1;fillColor=light-dark(#f5f5f5, #ffffff);strokeColor=#666666;gradientColor=light-dark(#b3b3b3, #ffffff);" vertex="1" parent="1">
          <mxGeometry x="655.5" y="900" width="2350" height="1460" as="geometry" />
        </mxCell>
        <mxCell id="sXJf7j9ku1CoHAVVAAhq-93" style="edgeStyle=orthogonalEdgeStyle;rounded=0;orthogonalLoop=1;jettySize=auto;html=1;" edge="1" parent="1" target="sXJf7j9ku1CoHAVVAAhq-92">
          <mxGeometry relative="1" as="geometry">
            <mxPoint x="1830.5" y="980" as="sourcePoint" />
          </mxGeometry>
        </mxCell>
        <mxCell id="sXJf7j9ku1CoHAVVAAhq-94" value="" style="rounded=0;whiteSpace=wrap;html=1;fillColor=light-dark(#f5f5f5, #ffffff);strokeColor=#666666;gradientColor=light-dark(#b3b3b3, #ffffff);" vertex="1" parent="1">
          <mxGeometry x="655.5" y="900" width="2350" height="90" as="geometry" />
        </mxCell>
        <mxCell id="sXJf7j9ku1CoHAVVAAhq-95" value="&lt;font style=&quot;color: light-dark(rgb(0, 0, 0), rgb(0, 0, 0)); font-size: 33px;&quot;&gt;Titel&lt;/font&gt;" style="text;html=1;align=center;verticalAlign=middle;whiteSpace=wrap;rounded=0;" vertex="1" parent="1">
          <mxGeometry x="665.5" y="910" width="200" height="60" as="geometry" />
        </mxCell>
        <mxCell id="sXJf7j9ku1CoHAVVAAhq-98" value="" style="rounded=0;whiteSpace=wrap;html=1;strokeWidth=1;fillColor=light-dark(#FFFFFF,#F2F2F2);strokeColor=light-dark(#000000,#0E0E0E);" vertex="1" parent="1">
          <mxGeometry x="1353" y="1260" width="962.5" height="720" as="geometry" />
        </mxCell>
        <mxCell id="sXJf7j9ku1CoHAVVAAhq-96" value="&lt;font style=&quot;color: light-dark(rgb(0, 0, 0), rgb(0, 0, 0)); font-size: 33px;&quot;&gt;Inloggen&lt;/font&gt;" style="text;html=1;align=center;verticalAlign=middle;whiteSpace=wrap;rounded=0;" vertex="1" parent="1">
          <mxGeometry x="1349.25" y="1260" width="970" height="70" as="geometry" />
        </mxCell>
        <mxCell id="sXJf7j9ku1CoHAVVAAhq-101" value="&lt;font style=&quot;color: light-dark(rgb(0, 0, 0), rgb(0, 0, 0)); font-size: 20px;&quot;&gt;Inloggen&lt;/font&gt;" style="rounded=0;whiteSpace=wrap;html=1;strokeWidth=1;fillColor=light-dark(#FFFFFF,#F2F2F2);strokeColor=light-dark(#000000,#151515);" vertex="1" parent="1">
          <mxGeometry x="1680.5" y="1645" width="295" height="55" as="geometry" />
        </mxCell>
        <mxCell id="sXJf7j9ku1CoHAVVAAhq-104" value="&lt;font style=&quot;color: light-dark(rgb(0, 0, 0), rgb(0, 0, 0)); font-size: 20px;&quot;&gt;Register&lt;/font&gt;" style="rounded=0;whiteSpace=wrap;html=1;strokeWidth=1;fillColor=light-dark(#FFFFFF,#F2F2F2);strokeColor=light-dark(#000000,#151515);" vertex="1" parent="1">
          <mxGeometry x="1680.5" y="1870" width="300" height="50" as="geometry" />
        </mxCell>
        <mxCell id="sXJf7j9ku1CoHAVVAAhq-105" value="&lt;font style=&quot;color: light-dark(rgb(0, 0, 0), rgb(0, 0, 0)); font-size: 20px;&quot;&gt;login&lt;/font&gt;" style="rounded=0;whiteSpace=wrap;html=1;strokeWidth=1;fillColor=light-dark(#FFFFFF,#F2F2F2);strokeColor=light-dark(#000000,#151515);" vertex="1" parent="1">
          <mxGeometry x="2840.5" y="920" width="130" height="50" as="geometry" />
        </mxCell>
        <mxCell id="sXJf7j9ku1CoHAVVAAhq-106" value="" style="rounded=0;whiteSpace=wrap;html=1;fillColor=light-dark(#f5f5f5, #ffffff);strokeColor=#666666;gradientColor=light-dark(#b3b3b3, #ffffff);" vertex="1" parent="1">
          <mxGeometry x="3100" y="900" width="2350" height="1460" as="geometry" />
        </mxCell>
        <mxCell id="sXJf7j9ku1CoHAVVAAhq-107" style="edgeStyle=orthogonalEdgeStyle;rounded=0;orthogonalLoop=1;jettySize=auto;html=1;" edge="1" parent="1" target="sXJf7j9ku1CoHAVVAAhq-106">
          <mxGeometry relative="1" as="geometry">
            <mxPoint x="4275" y="980" as="sourcePoint" />
          </mxGeometry>
        </mxCell>
        <mxCell id="sXJf7j9ku1CoHAVVAAhq-108" value="" style="rounded=0;whiteSpace=wrap;html=1;fillColor=light-dark(#f5f5f5, #ffffff);strokeColor=#666666;gradientColor=light-dark(#b3b3b3, #ffffff);" vertex="1" parent="1">
          <mxGeometry x="3100" y="900" width="2350" height="90" as="geometry" />
        </mxCell>
        <mxCell id="sXJf7j9ku1CoHAVVAAhq-109" value="&lt;font style=&quot;color: light-dark(rgb(0, 0, 0), rgb(0, 0, 0)); font-size: 33px;&quot;&gt;Titel&lt;/font&gt;" style="text;html=1;align=center;verticalAlign=middle;whiteSpace=wrap;rounded=0;" vertex="1" parent="1">
          <mxGeometry x="3110" y="910" width="200" height="60" as="geometry" />
        </mxCell>
        <mxCell id="sXJf7j9ku1CoHAVVAAhq-119" value="&lt;font style=&quot;color: light-dark(rgb(0, 0, 0), rgb(0, 0, 0)); font-size: 20px;&quot;&gt;login&lt;/font&gt;" style="rounded=0;whiteSpace=wrap;html=1;strokeWidth=1;fillColor=light-dark(#FFFFFF,#F2F2F2);strokeColor=light-dark(#000000,#151515);" vertex="1" parent="1">
          <mxGeometry x="5285" y="920" width="130" height="50" as="geometry" />
        </mxCell>
        <mxCell id="sXJf7j9ku1CoHAVVAAhq-120" value="&lt;font style=&quot;color: light-dark(rgb(0, 0, 0), rgb(0, 0, 0)); font-size: 21px;&quot;&gt;Terug&lt;/font&gt;" style="text;html=1;align=center;verticalAlign=middle;whiteSpace=wrap;rounded=0;" vertex="1" parent="1">
          <mxGeometry x="1353" y="2000" width="962.5" height="70" as="geometry" />
        </mxCell>
        <mxCell id="sXJf7j9ku1CoHAVVAAhq-122" value="&lt;font style=&quot;color: light-dark(rgb(0, 0, 0), rgb(7, 7, 7));&quot;&gt;&lt;span style=&quot;font-size: 20px;&quot;&gt;Email:&lt;/span&gt;&lt;/font&gt;" style="rounded=0;whiteSpace=wrap;html=1;strokeWidth=1;fillColor=light-dark(#FFFFFF,#F2F2F2);strokeColor=light-dark(#000000,#151515);align=left;" vertex="1" parent="1">
          <mxGeometry x="1419.25" y="1350" width="830" height="60" as="geometry" />
        </mxCell>
        <mxCell id="sXJf7j9ku1CoHAVVAAhq-123" value="&lt;font style=&quot;color: light-dark(rgb(0, 0, 0), rgb(0, 0, 0)); font-size: 20px;&quot;&gt;Wachtwoord:&lt;/font&gt;" style="rounded=0;whiteSpace=wrap;html=1;strokeWidth=1;fillColor=light-dark(#FFFFFF,#F2F2F2);strokeColor=light-dark(#000000,#151515);align=left;" vertex="1" parent="1">
          <mxGeometry x="1419.25" y="1450" width="830" height="60" as="geometry" />
        </mxCell>
        <mxCell id="sXJf7j9ku1CoHAVVAAhq-124" value="" style="rounded=0;whiteSpace=wrap;html=1;strokeWidth=1;fillColor=light-dark(#FFFFFF,#F2F2F2);strokeColor=light-dark(#000000,#0E0E0E);" vertex="1" parent="1">
          <mxGeometry x="3803.75" y="1190" width="962.5" height="720" as="geometry" />
        </mxCell>
        <mxCell id="sXJf7j9ku1CoHAVVAAhq-125" value="&lt;font style=&quot;color: light-dark(rgb(0, 0, 0), rgb(0, 0, 0)); font-size: 33px;&quot;&gt;Registreren&lt;/font&gt;" style="text;html=1;align=center;verticalAlign=middle;whiteSpace=wrap;rounded=0;" vertex="1" parent="1">
          <mxGeometry x="3800" y="1190" width="970" height="70" as="geometry" />
        </mxCell>
        <mxCell id="sXJf7j9ku1CoHAVVAAhq-127" value="&lt;font style=&quot;color: light-dark(rgb(0, 0, 0), rgb(0, 0, 0)); font-size: 20px;&quot;&gt;Aanmaken&lt;/font&gt;" style="rounded=0;whiteSpace=wrap;html=1;strokeWidth=1;fillColor=light-dark(#FFFFFF,#F2F2F2);strokeColor=light-dark(#000000,#151515);" vertex="1" parent="1">
          <mxGeometry x="4131.25" y="1800" width="300" height="50" as="geometry" />
        </mxCell>
        <mxCell id="sXJf7j9ku1CoHAVVAAhq-128" value="&lt;font style=&quot;color: light-dark(rgb(0, 0, 0), rgb(0, 0, 0)); font-size: 21px;&quot;&gt;Terug&lt;/font&gt;" style="text;html=1;align=center;verticalAlign=middle;whiteSpace=wrap;rounded=0;" vertex="1" parent="1">
          <mxGeometry x="3803.75" y="1930" width="962.5" height="70" as="geometry" />
        </mxCell>
        <mxCell id="sXJf7j9ku1CoHAVVAAhq-129" value="&lt;font style=&quot;color: light-dark(rgb(0, 0, 0), rgb(7, 7, 7));&quot;&gt;&lt;span style=&quot;font-size: 20px;&quot;&gt;Email:&lt;/span&gt;&lt;/font&gt;" style="rounded=0;whiteSpace=wrap;html=1;strokeWidth=1;fillColor=light-dark(#FFFFFF,#F2F2F2);strokeColor=light-dark(#000000,#151515);align=left;" vertex="1" parent="1">
          <mxGeometry x="3870" y="1370" width="830" height="60" as="geometry" />
        </mxCell>
        <mxCell id="sXJf7j9ku1CoHAVVAAhq-130" value="&lt;font style=&quot;color: light-dark(rgb(0, 0, 0), rgb(0, 0, 0)); font-size: 20px;&quot;&gt;Wachtwoord:&lt;/font&gt;" style="rounded=0;whiteSpace=wrap;html=1;strokeWidth=1;fillColor=light-dark(#FFFFFF,#F2F2F2);strokeColor=light-dark(#000000,#151515);align=left;" vertex="1" parent="1">
          <mxGeometry x="3870" y="1470" width="830" height="60" as="geometry" />
        </mxCell>
        <mxCell id="sXJf7j9ku1CoHAVVAAhq-131" value="&lt;font style=&quot;color: light-dark(rgb(0, 0, 0), rgb(0, 0, 0)); font-size: 20px;&quot;&gt;Naam&lt;/font&gt;" style="rounded=0;whiteSpace=wrap;html=1;strokeWidth=1;fillColor=light-dark(#FFFFFF,#F2F2F2);strokeColor=light-dark(#000000,#151515);align=left;" vertex="1" parent="1">
          <mxGeometry x="3875" y="1275" width="295" height="55" as="geometry" />
        </mxCell>
        <mxCell id="sXJf7j9ku1CoHAVVAAhq-132" value="&lt;font style=&quot;color: light-dark(rgb(0, 0, 0), rgb(0, 0, 0)); font-size: 20px;&quot;&gt;Achternaam&lt;/font&gt;" style="rounded=0;whiteSpace=wrap;html=1;strokeWidth=1;fillColor=light-dark(#FFFFFF,#F2F2F2);strokeColor=light-dark(#000000,#151515);align=left;" vertex="1" parent="1">
          <mxGeometry x="4405" y="1280" width="295" height="55" as="geometry" />
        </mxCell>
        <mxCell id="sXJf7j9ku1CoHAVVAAhq-133" value="&lt;font style=&quot;color: light-dark(rgb(0, 0, 0), rgb(0, 0, 0)); font-size: 20px;&quot;&gt;Herhaal wachtwoord:&lt;/font&gt;" style="rounded=0;whiteSpace=wrap;html=1;strokeWidth=1;fillColor=light-dark(#FFFFFF,#F2F2F2);strokeColor=light-dark(#000000,#151515);align=left;" vertex="1" parent="1">
          <mxGeometry x="3867.5" y="1560" width="830" height="60" as="geometry" />
        </mxCell>
        <mxCell id="sXJf7j9ku1CoHAVVAAhq-134" value="&lt;font style=&quot;color: light-dark(rgb(0, 0, 0), rgb(0, 0, 0)); font-size: 20px;&quot;&gt;Welke winkel:&lt;/font&gt;" style="rounded=0;whiteSpace=wrap;html=1;strokeWidth=1;fillColor=light-dark(#FFFFFF,#F2F2F2);strokeColor=light-dark(#000000,#151515);align=left;" vertex="1" parent="1">
          <mxGeometry x="3870" y="1700" width="830" height="60" as="geometry" />
        </mxCell>
        <mxCell id="sXJf7j9ku1CoHAVVAAhq-136" value="" style="rounded=0;whiteSpace=wrap;html=1;fillColor=light-dark(#f5f5f5, #ffffff);strokeColor=#666666;gradientColor=light-dark(#b3b3b3, #ffffff);" vertex="1" parent="1">
          <mxGeometry x="653" y="2570" width="2350" height="1460" as="geometry" />
        </mxCell>
        <mxCell id="sXJf7j9ku1CoHAVVAAhq-137" style="edgeStyle=orthogonalEdgeStyle;rounded=0;orthogonalLoop=1;jettySize=auto;html=1;" edge="1" parent="1" target="sXJf7j9ku1CoHAVVAAhq-136">
          <mxGeometry relative="1" as="geometry">
            <mxPoint x="1828" y="2650" as="sourcePoint" />
          </mxGeometry>
        </mxCell>
        <mxCell id="sXJf7j9ku1CoHAVVAAhq-138" value="" style="rounded=0;whiteSpace=wrap;html=1;fillColor=light-dark(#f5f5f5, #ffffff);strokeColor=#666666;gradientColor=light-dark(#b3b3b3, #ffffff);" vertex="1" parent="1">
          <mxGeometry x="653" y="2570" width="2350" height="90" as="geometry" />
        </mxCell>
        <mxCell id="sXJf7j9ku1CoHAVVAAhq-139" value="&lt;font style=&quot;color: light-dark(rgb(0, 0, 0), rgb(0, 0, 0)); font-size: 33px;&quot;&gt;Titel&lt;/font&gt;" style="text;html=1;align=center;verticalAlign=middle;whiteSpace=wrap;rounded=0;" vertex="1" parent="1">
          <mxGeometry x="663" y="2580" width="200" height="60" as="geometry" />
        </mxCell>
        <mxCell id="sXJf7j9ku1CoHAVVAAhq-140" value="&lt;font style=&quot;color: light-dark(rgb(0, 0, 0), rgb(0, 0, 0)); font-size: 33px;&quot;&gt;Klanten&lt;/font&gt;" style="text;html=1;align=left;verticalAlign=middle;whiteSpace=wrap;rounded=0;" vertex="1" parent="1">
          <mxGeometry x="770" y="2735" width="1010" height="70" as="geometry" />
        </mxCell>
        <mxCell id="sXJf7j9ku1CoHAVVAAhq-142" value="" style="rounded=0;whiteSpace=wrap;html=1;strokeWidth=1;fillColor=light-dark(#FFFFFF,#F2F2F2);strokeColor=light-dark(#000000,#0E0E0E);" vertex="1" parent="1">
          <mxGeometry x="760.5" y="2820" width="2140" height="1110" as="geometry" />
        </mxCell>
        <mxCell id="sXJf7j9ku1CoHAVVAAhq-145" value="&lt;font style=&quot;color: light-dark(rgb(0, 0, 0), rgb(0, 0, 0)); font-size: 20px;&quot;&gt;USER&lt;/font&gt;" style="rounded=0;whiteSpace=wrap;html=1;strokeWidth=1;fillColor=light-dark(#FFFFFF,#F2F2F2);strokeColor=light-dark(#000000,#151515);" vertex="1" parent="1">
          <mxGeometry x="2838" y="2590" width="130" height="50" as="geometry" />
        </mxCell>
        <mxCell id="sXJf7j9ku1CoHAVVAAhq-146" value="&lt;font style=&quot;color: light-dark(rgb(0, 0, 0), rgb(0, 0, 0)); font-size: 33px;&quot;&gt;&lt;u&gt;klanten&lt;/u&gt;&lt;/font&gt;" style="text;html=1;align=center;verticalAlign=middle;whiteSpace=wrap;rounded=0;" vertex="1" parent="1">
          <mxGeometry x="873" y="2580" width="200" height="60" as="geometry" />
        </mxCell>
        <mxCell id="sXJf7j9ku1CoHAVVAAhq-147" value="&lt;font style=&quot;color: light-dark(rgb(0, 0, 0), rgb(0, 0, 0)); font-size: 33px;&quot;&gt;films&lt;/font&gt;" style="text;html=1;align=center;verticalAlign=middle;whiteSpace=wrap;rounded=0;" vertex="1" parent="1">
          <mxGeometry x="1083" y="2585" width="200" height="60" as="geometry" />
        </mxCell>
        <mxCell id="sXJf7j9ku1CoHAVVAAhq-148" value="&lt;font style=&quot;color: light-dark(rgb(0, 0, 0), rgb(0, 0, 0)); font-size: 33px;&quot;&gt;about&lt;/font&gt;" style="text;html=1;align=center;verticalAlign=middle;whiteSpace=wrap;rounded=0;" vertex="1" parent="1">
          <mxGeometry x="1298" y="2585" width="200" height="60" as="geometry" />
        </mxCell>
        <mxCell id="sXJf7j9ku1CoHAVVAAhq-149" value="&lt;font style=&quot;color: light-dark(rgb(0, 0, 0), rgb(0, 0, 0)); font-size: 19px;&quot;&gt;(bij klik komt er profiel en logout optie)&lt;/font&gt;" style="text;html=1;align=center;verticalAlign=middle;whiteSpace=wrap;rounded=0;" vertex="1" parent="1">
          <mxGeometry x="2748" y="2660" width="250" height="75" as="geometry" />
        </mxCell>
        <mxCell id="sXJf7j9ku1CoHAVVAAhq-150" value="&lt;font style=&quot;font-size: 40px;&quot;&gt;Inlogscherm&lt;/font&gt;" style="text;html=1;align=center;verticalAlign=middle;whiteSpace=wrap;rounded=0;" vertex="1" parent="1">
          <mxGeometry x="1020" y="800" width="1560" height="80" as="geometry" />
        </mxCell>
        <mxCell id="sXJf7j9ku1CoHAVVAAhq-151" value="&lt;font style=&quot;font-size: 40px;&quot;&gt;Registreer scherm&lt;/font&gt;" style="text;html=1;align=center;verticalAlign=middle;whiteSpace=wrap;rounded=0;" vertex="1" parent="1">
          <mxGeometry x="3464.5" y="790" width="1560" height="80" as="geometry" />
        </mxCell>
        <mxCell id="sXJf7j9ku1CoHAVVAAhq-152" value="&lt;font style=&quot;color: light-dark(rgb(0, 0, 0), rgb(0, 0, 0)); font-size: 20px;&quot;&gt;Toevoegen&lt;/font&gt;" style="rounded=0;whiteSpace=wrap;html=1;strokeWidth=1;fillColor=light-dark(#FFFFFF,#F2F2F2);strokeColor=light-dark(#000000,#151515);" vertex="1" parent="1">
          <mxGeometry x="2670" y="2750" width="220" height="50" as="geometry" />
        </mxCell>
        <mxCell id="sXJf7j9ku1CoHAVVAAhq-153" value="&lt;font style=&quot;color: light-dark(rgb(0, 0, 0), rgb(0, 0, 0)); font-size: 30px;&quot;&gt;Zoekbalk&lt;/font&gt;" style="rounded=0;whiteSpace=wrap;html=1;strokeWidth=1;fillColor=light-dark(#FFFFFF,#F2F2F2);strokeColor=light-dark(#000000,#0E0E0E);align=left;" vertex="1" parent="1">
          <mxGeometry x="790" y="2850" width="1170" height="60" as="geometry" />
        </mxCell>
        <mxCell id="sXJf7j9ku1CoHAVVAAhq-154" value="&lt;font style=&quot;color: light-dark(rgb(0, 0, 0), rgb(7, 7, 7)); font-size: 32px;&quot;&gt;Klantcards&lt;/font&gt;" style="rounded=0;whiteSpace=wrap;html=1;strokeWidth=1;fillColor=light-dark(#FFFFFF,#F2F2F2);strokeColor=light-dark(#000000,#0E0E0E);" vertex="1" parent="1">
          <mxGeometry x="800" y="2970" width="510" height="280" as="geometry" />
        </mxCell>
        <mxCell id="sXJf7j9ku1CoHAVVAAhq-155" value="" style="rounded=0;whiteSpace=wrap;html=1;strokeWidth=1;fillColor=light-dark(#FFFFFF,#F2F2F2);strokeColor=light-dark(#000000,#0E0E0E);" vertex="1" parent="1">
          <mxGeometry x="800" y="3270" width="510" height="280" as="geometry" />
        </mxCell>
        <mxCell id="sXJf7j9ku1CoHAVVAAhq-156" value="" style="rounded=0;whiteSpace=wrap;html=1;strokeWidth=1;fillColor=light-dark(#FFFFFF,#F2F2F2);strokeColor=light-dark(#000000,#0E0E0E);" vertex="1" parent="1">
          <mxGeometry x="800" y="3570" width="510" height="280" as="geometry" />
        </mxCell>
        <mxCell id="sXJf7j9ku1CoHAVVAAhq-158" value="" style="rounded=0;whiteSpace=wrap;html=1;strokeWidth=1;fillColor=light-dark(#FFFFFF,#F2F2F2);strokeColor=light-dark(#000000,#0E0E0E);" vertex="1" parent="1">
          <mxGeometry x="1573" y="2970" width="510" height="280" as="geometry" />
        </mxCell>
        <mxCell id="sXJf7j9ku1CoHAVVAAhq-159" value="" style="rounded=0;whiteSpace=wrap;html=1;strokeWidth=1;fillColor=light-dark(#FFFFFF,#F2F2F2);strokeColor=light-dark(#000000,#0E0E0E);" vertex="1" parent="1">
          <mxGeometry x="1573" y="3270" width="510" height="280" as="geometry" />
        </mxCell>
        <mxCell id="sXJf7j9ku1CoHAVVAAhq-160" value="" style="rounded=0;whiteSpace=wrap;html=1;strokeWidth=1;fillColor=light-dark(#FFFFFF,#F2F2F2);strokeColor=light-dark(#000000,#0E0E0E);" vertex="1" parent="1">
          <mxGeometry x="1573" y="3570" width="510" height="280" as="geometry" />
        </mxCell>
        <mxCell id="sXJf7j9ku1CoHAVVAAhq-161" value="" style="rounded=0;whiteSpace=wrap;html=1;strokeWidth=1;fillColor=light-dark(#FFFFFF,#F2F2F2);strokeColor=light-dark(#000000,#0E0E0E);" vertex="1" parent="1">
          <mxGeometry x="2328" y="2970" width="510" height="280" as="geometry" />
        </mxCell>
        <mxCell id="sXJf7j9ku1CoHAVVAAhq-162" value="" style="rounded=0;whiteSpace=wrap;html=1;strokeWidth=1;fillColor=light-dark(#FFFFFF,#F2F2F2);strokeColor=light-dark(#000000,#0E0E0E);" vertex="1" parent="1">
          <mxGeometry x="2328" y="3270" width="510" height="280" as="geometry" />
        </mxCell>
        <mxCell id="sXJf7j9ku1CoHAVVAAhq-163" value="" style="rounded=0;whiteSpace=wrap;html=1;strokeWidth=1;fillColor=light-dark(#FFFFFF,#F2F2F2);strokeColor=light-dark(#000000,#0E0E0E);" vertex="1" parent="1">
          <mxGeometry x="2328" y="3570" width="510" height="280" as="geometry" />
        </mxCell>
        <mxCell id="sXJf7j9ku1CoHAVVAAhq-165" value="" style="rounded=0;whiteSpace=wrap;html=1;fillColor=light-dark(#f5f5f5, #ffffff);strokeColor=#666666;gradientColor=light-dark(#b3b3b3, #ffffff);" vertex="1" parent="1">
          <mxGeometry x="3114.5" y="2570" width="2350" height="1460" as="geometry" />
        </mxCell>
        <mxCell id="sXJf7j9ku1CoHAVVAAhq-166" style="edgeStyle=orthogonalEdgeStyle;rounded=0;orthogonalLoop=1;jettySize=auto;html=1;" edge="1" parent="1" target="sXJf7j9ku1CoHAVVAAhq-165">
          <mxGeometry relative="1" as="geometry">
            <mxPoint x="4289.5" y="2650" as="sourcePoint" />
          </mxGeometry>
        </mxCell>
        <mxCell id="sXJf7j9ku1CoHAVVAAhq-167" value="" style="rounded=0;whiteSpace=wrap;html=1;fillColor=light-dark(#f5f5f5, #ffffff);strokeColor=#666666;gradientColor=light-dark(#b3b3b3, #ffffff);" vertex="1" parent="1">
          <mxGeometry x="3114.5" y="2570" width="2350" height="90" as="geometry" />
        </mxCell>
        <mxCell id="sXJf7j9ku1CoHAVVAAhq-168" value="&lt;font style=&quot;color: light-dark(rgb(0, 0, 0), rgb(0, 0, 0)); font-size: 33px;&quot;&gt;Titel&lt;/font&gt;" style="text;html=1;align=center;verticalAlign=middle;whiteSpace=wrap;rounded=0;" vertex="1" parent="1">
          <mxGeometry x="3124.5" y="2580" width="200" height="60" as="geometry" />
        </mxCell>
        <mxCell id="sXJf7j9ku1CoHAVVAAhq-169" value="&lt;font style=&quot;color: light-dark(rgb(0, 0, 0), rgb(0, 0, 0)); font-size: 33px;&quot;&gt;Films&lt;/font&gt;" style="text;html=1;align=left;verticalAlign=middle;whiteSpace=wrap;rounded=0;" vertex="1" parent="1">
          <mxGeometry x="3231.5" y="2735" width="1010" height="70" as="geometry" />
        </mxCell>
        <mxCell id="sXJf7j9ku1CoHAVVAAhq-170" value="" style="rounded=0;whiteSpace=wrap;html=1;strokeWidth=1;fillColor=light-dark(#FFFFFF,#F2F2F2);strokeColor=light-dark(#000000,#0E0E0E);" vertex="1" parent="1">
          <mxGeometry x="3222" y="2820" width="2140" height="1110" as="geometry" />
        </mxCell>
        <mxCell id="sXJf7j9ku1CoHAVVAAhq-171" value="&lt;font style=&quot;color: light-dark(rgb(0, 0, 0), rgb(0, 0, 0)); font-size: 20px;&quot;&gt;USER&lt;/font&gt;" style="rounded=0;whiteSpace=wrap;html=1;strokeWidth=1;fillColor=light-dark(#FFFFFF,#F2F2F2);strokeColor=light-dark(#000000,#151515);" vertex="1" parent="1">
          <mxGeometry x="5299.5" y="2590" width="130" height="50" as="geometry" />
        </mxCell>
        <mxCell id="sXJf7j9ku1CoHAVVAAhq-172" value="&lt;font style=&quot;color: light-dark(rgb(0, 0, 0), rgb(0, 0, 0)); font-size: 33px;&quot;&gt;klanten&lt;/font&gt;" style="text;html=1;align=center;verticalAlign=middle;whiteSpace=wrap;rounded=0;" vertex="1" parent="1">
          <mxGeometry x="3334.5" y="2580" width="200" height="60" as="geometry" />
        </mxCell>
        <mxCell id="sXJf7j9ku1CoHAVVAAhq-173" value="&lt;font style=&quot;color: light-dark(rgb(0, 0, 0), rgb(0, 0, 0)); font-size: 33px;&quot;&gt;&lt;u&gt;films&lt;/u&gt;&lt;/font&gt;" style="text;html=1;align=center;verticalAlign=middle;whiteSpace=wrap;rounded=0;" vertex="1" parent="1">
          <mxGeometry x="3544.5" y="2585" width="200" height="60" as="geometry" />
        </mxCell>
        <mxCell id="sXJf7j9ku1CoHAVVAAhq-174" value="&lt;font style=&quot;color: light-dark(rgb(0, 0, 0), rgb(0, 0, 0)); font-size: 33px;&quot;&gt;about&lt;/font&gt;" style="text;html=1;align=center;verticalAlign=middle;whiteSpace=wrap;rounded=0;" vertex="1" parent="1">
          <mxGeometry x="3759.5" y="2585" width="200" height="60" as="geometry" />
        </mxCell>
        <mxCell id="sXJf7j9ku1CoHAVVAAhq-175" value="&lt;font style=&quot;color: light-dark(rgb(0, 0, 0), rgb(0, 0, 0)); font-size: 19px;&quot;&gt;(bij klik komt er profiel en logout optie)&lt;/font&gt;" style="text;html=1;align=center;verticalAlign=middle;whiteSpace=wrap;rounded=0;" vertex="1" parent="1">
          <mxGeometry x="5209.5" y="2660" width="250" height="75" as="geometry" />
        </mxCell>
        <mxCell id="sXJf7j9ku1CoHAVVAAhq-177" value="&lt;font style=&quot;color: light-dark(rgb(0, 0, 0), rgb(0, 0, 0)); font-size: 30px;&quot;&gt;Zoekbalk&lt;/font&gt;" style="rounded=0;whiteSpace=wrap;html=1;strokeWidth=1;fillColor=light-dark(#FFFFFF,#F2F2F2);strokeColor=light-dark(#000000,#0E0E0E);align=left;" vertex="1" parent="1">
          <mxGeometry x="3251.5" y="2850" width="1170" height="60" as="geometry" />
        </mxCell>
        <mxCell id="sXJf7j9ku1CoHAVVAAhq-178" value="&lt;font style=&quot;color: light-dark(rgb(0, 0, 0), rgb(7, 7, 7)); font-size: 32px;&quot;&gt;Filmcards&lt;/font&gt;" style="rounded=0;whiteSpace=wrap;html=1;strokeWidth=1;fillColor=light-dark(#FFFFFF,#F2F2F2);strokeColor=light-dark(#000000,#0E0E0E);" vertex="1" parent="1">
          <mxGeometry x="3261.5" y="2970" width="510" height="280" as="geometry" />
        </mxCell>
        <mxCell id="sXJf7j9ku1CoHAVVAAhq-179" value="" style="rounded=0;whiteSpace=wrap;html=1;strokeWidth=1;fillColor=light-dark(#FFFFFF,#F2F2F2);strokeColor=light-dark(#000000,#0E0E0E);" vertex="1" parent="1">
          <mxGeometry x="3261.5" y="3270" width="510" height="280" as="geometry" />
        </mxCell>
        <mxCell id="sXJf7j9ku1CoHAVVAAhq-180" value="" style="rounded=0;whiteSpace=wrap;html=1;strokeWidth=1;fillColor=light-dark(#FFFFFF,#F2F2F2);strokeColor=light-dark(#000000,#0E0E0E);" vertex="1" parent="1">
          <mxGeometry x="3261.5" y="3570" width="510" height="280" as="geometry" />
        </mxCell>
        <mxCell id="sXJf7j9ku1CoHAVVAAhq-181" value="&lt;font style=&quot;color: light-dark(rgb(0, 0, 0), rgb(0, 0, 0)); font-size: 31px;&quot;&gt;filmtitel&lt;/font&gt;" style="rounded=0;whiteSpace=wrap;html=1;strokeWidth=1;fillColor=light-dark(#FFFFFF,#F2F2F2);strokeColor=light-dark(#000000,#0E0E0E);" vertex="1" parent="1">
          <mxGeometry x="4034.5" y="2970" width="510" height="280" as="geometry" />
        </mxCell>
        <mxCell id="sXJf7j9ku1CoHAVVAAhq-182" value="" style="rounded=0;whiteSpace=wrap;html=1;strokeWidth=1;fillColor=light-dark(#FFFFFF,#F2F2F2);strokeColor=light-dark(#000000,#0E0E0E);" vertex="1" parent="1">
          <mxGeometry x="4034.5" y="3270" width="510" height="280" as="geometry" />
        </mxCell>
        <mxCell id="sXJf7j9ku1CoHAVVAAhq-183" value="" style="rounded=0;whiteSpace=wrap;html=1;strokeWidth=1;fillColor=light-dark(#FFFFFF,#F2F2F2);strokeColor=light-dark(#000000,#0E0E0E);" vertex="1" parent="1">
          <mxGeometry x="4034.5" y="3570" width="510" height="280" as="geometry" />
        </mxCell>
        <mxCell id="sXJf7j9ku1CoHAVVAAhq-184" value="&lt;span style=&quot;font-size: 31px;&quot;&gt;&lt;font style=&quot;color: light-dark(rgb(0, 0, 0), rgb(0, 0, 0));&quot;&gt;filmtitel&lt;/font&gt;&lt;/span&gt;" style="rounded=0;whiteSpace=wrap;html=1;strokeWidth=1;fillColor=light-dark(#FFFFFF,#F2F2F2);strokeColor=light-dark(#000000,#0E0E0E);" vertex="1" parent="1">
          <mxGeometry x="4789.5" y="2970" width="510" height="280" as="geometry" />
        </mxCell>
        <mxCell id="sXJf7j9ku1CoHAVVAAhq-185" value="" style="rounded=0;whiteSpace=wrap;html=1;strokeWidth=1;fillColor=light-dark(#FFFFFF,#F2F2F2);strokeColor=light-dark(#000000,#0E0E0E);" vertex="1" parent="1">
          <mxGeometry x="4789.5" y="3270" width="510" height="280" as="geometry" />
        </mxCell>
        <mxCell id="sXJf7j9ku1CoHAVVAAhq-186" value="" style="rounded=0;whiteSpace=wrap;html=1;strokeWidth=1;fillColor=light-dark(#FFFFFF,#F2F2F2);strokeColor=light-dark(#000000,#0E0E0E);" vertex="1" parent="1">
          <mxGeometry x="4789.5" y="3570" width="510" height="280" as="geometry" />
        </mxCell>
        <mxCell id="sXJf7j9ku1CoHAVVAAhq-188" value="&lt;font style=&quot;color: light-dark(rgb(0, 0, 0), rgb(0, 0, 0)); font-size: 22px;&quot;&gt;Details&lt;/font&gt;" style="rounded=0;whiteSpace=wrap;html=1;strokeWidth=1;fillColor=light-dark(#FFFFFF,#F2F2F2);strokeColor=light-dark(#000000,#0E0E0E);" vertex="1" parent="1">
          <mxGeometry x="1160" y="3180" width="150" height="70" as="geometry" />
        </mxCell>
        <mxCell id="sXJf7j9ku1CoHAVVAAhq-190" value="&lt;font style=&quot;color: light-dark(rgb(0, 0, 0), rgb(0, 0, 0)); font-size: 22px;&quot;&gt;Details&lt;/font&gt;" style="rounded=0;whiteSpace=wrap;html=1;strokeWidth=1;fillColor=light-dark(#FFFFFF,#F2F2F2);strokeColor=light-dark(#000000,#0E0E0E);" vertex="1" parent="1">
          <mxGeometry x="1160" y="3480" width="150" height="70" as="geometry" />
        </mxCell>
        <mxCell id="sXJf7j9ku1CoHAVVAAhq-191" value="&lt;font style=&quot;color: light-dark(rgb(0, 0, 0), rgb(0, 0, 0)); font-size: 22px;&quot;&gt;Details&lt;/font&gt;" style="rounded=0;whiteSpace=wrap;html=1;strokeWidth=1;fillColor=light-dark(#FFFFFF,#F2F2F2);strokeColor=light-dark(#000000,#0E0E0E);" vertex="1" parent="1">
          <mxGeometry x="1160" y="3780" width="150" height="70" as="geometry" />
        </mxCell>
        <mxCell id="sXJf7j9ku1CoHAVVAAhq-193" value="&lt;font style=&quot;color: light-dark(rgb(0, 0, 0), rgb(0, 0, 0)); font-size: 22px;&quot;&gt;Details&lt;/font&gt;" style="rounded=0;whiteSpace=wrap;html=1;strokeWidth=1;fillColor=light-dark(#FFFFFF,#F2F2F2);strokeColor=light-dark(#000000,#0E0E0E);" vertex="1" parent="1">
          <mxGeometry x="1933" y="3180" width="150" height="70" as="geometry" />
        </mxCell>
        <mxCell id="sXJf7j9ku1CoHAVVAAhq-194" value="&lt;font style=&quot;color: light-dark(rgb(0, 0, 0), rgb(0, 0, 0)); font-size: 22px;&quot;&gt;Details&lt;/font&gt;" style="rounded=0;whiteSpace=wrap;html=1;strokeWidth=1;fillColor=light-dark(#FFFFFF,#F2F2F2);strokeColor=light-dark(#000000,#0E0E0E);" vertex="1" parent="1">
          <mxGeometry x="1933" y="3480" width="150" height="70" as="geometry" />
        </mxCell>
        <mxCell id="sXJf7j9ku1CoHAVVAAhq-195" value="&lt;font style=&quot;color: light-dark(rgb(0, 0, 0), rgb(0, 0, 0)); font-size: 22px;&quot;&gt;Details&lt;/font&gt;" style="rounded=0;whiteSpace=wrap;html=1;strokeWidth=1;fillColor=light-dark(#FFFFFF,#F2F2F2);strokeColor=light-dark(#000000,#0E0E0E);" vertex="1" parent="1">
          <mxGeometry x="1933" y="3780" width="150" height="70" as="geometry" />
        </mxCell>
        <mxCell id="sXJf7j9ku1CoHAVVAAhq-196" value="&lt;font style=&quot;color: light-dark(rgb(0, 0, 0), rgb(0, 0, 0)); font-size: 22px;&quot;&gt;Details&lt;/font&gt;" style="rounded=0;whiteSpace=wrap;html=1;strokeWidth=1;fillColor=light-dark(#FFFFFF,#F2F2F2);strokeColor=light-dark(#000000,#0E0E0E);" vertex="1" parent="1">
          <mxGeometry x="2688" y="3180" width="150" height="70" as="geometry" />
        </mxCell>
        <mxCell id="sXJf7j9ku1CoHAVVAAhq-197" value="&lt;font style=&quot;color: light-dark(rgb(0, 0, 0), rgb(0, 0, 0)); font-size: 22px;&quot;&gt;Details&lt;/font&gt;" style="rounded=0;whiteSpace=wrap;html=1;strokeWidth=1;fillColor=light-dark(#FFFFFF,#F2F2F2);strokeColor=light-dark(#000000,#0E0E0E);" vertex="1" parent="1">
          <mxGeometry x="2688" y="3480" width="150" height="70" as="geometry" />
        </mxCell>
        <mxCell id="sXJf7j9ku1CoHAVVAAhq-198" value="&lt;font style=&quot;color: light-dark(rgb(0, 0, 0), rgb(0, 0, 0)); font-size: 22px;&quot;&gt;Details&lt;/font&gt;" style="rounded=0;whiteSpace=wrap;html=1;strokeWidth=1;fillColor=light-dark(#FFFFFF,#F2F2F2);strokeColor=light-dark(#000000,#0E0E0E);" vertex="1" parent="1">
          <mxGeometry x="2688" y="3780" width="150" height="70" as="geometry" />
        </mxCell>
        <mxCell id="sXJf7j9ku1CoHAVVAAhq-199" value="&lt;font style=&quot;color: light-dark(rgb(0, 0, 0), rgb(0, 0, 0)); font-size: 22px;&quot;&gt;Details&lt;/font&gt;" style="rounded=0;whiteSpace=wrap;html=1;strokeWidth=1;fillColor=light-dark(#FFFFFF,#F2F2F2);strokeColor=light-dark(#000000,#0E0E0E);" vertex="1" parent="1">
          <mxGeometry x="3624.5" y="3180" width="150" height="70" as="geometry" />
        </mxCell>
        <mxCell id="sXJf7j9ku1CoHAVVAAhq-200" value="&lt;font style=&quot;color: light-dark(rgb(0, 0, 0), rgb(0, 0, 0)); font-size: 22px;&quot;&gt;Details&lt;/font&gt;" style="rounded=0;whiteSpace=wrap;html=1;strokeWidth=1;fillColor=light-dark(#FFFFFF,#F2F2F2);strokeColor=light-dark(#000000,#0E0E0E);" vertex="1" parent="1">
          <mxGeometry x="3624.5" y="3480" width="150" height="70" as="geometry" />
        </mxCell>
        <mxCell id="sXJf7j9ku1CoHAVVAAhq-201" value="&lt;font style=&quot;color: light-dark(rgb(0, 0, 0), rgb(0, 0, 0)); font-size: 22px;&quot;&gt;Details&lt;/font&gt;" style="rounded=0;whiteSpace=wrap;html=1;strokeWidth=1;fillColor=light-dark(#FFFFFF,#F2F2F2);strokeColor=light-dark(#000000,#0E0E0E);" vertex="1" parent="1">
          <mxGeometry x="3624.5" y="3780" width="150" height="70" as="geometry" />
        </mxCell>
        <mxCell id="sXJf7j9ku1CoHAVVAAhq-202" value="&lt;font style=&quot;color: light-dark(rgb(0, 0, 0), rgb(0, 0, 0)); font-size: 22px;&quot;&gt;Details&lt;/font&gt;" style="rounded=0;whiteSpace=wrap;html=1;strokeWidth=1;fillColor=light-dark(#FFFFFF,#F2F2F2);strokeColor=light-dark(#000000,#0E0E0E);" vertex="1" parent="1">
          <mxGeometry x="4394.5" y="3180" width="150" height="70" as="geometry" />
        </mxCell>
        <mxCell id="sXJf7j9ku1CoHAVVAAhq-203" value="&lt;font style=&quot;color: light-dark(rgb(0, 0, 0), rgb(0, 0, 0)); font-size: 22px;&quot;&gt;Details&lt;/font&gt;" style="rounded=0;whiteSpace=wrap;html=1;strokeWidth=1;fillColor=light-dark(#FFFFFF,#F2F2F2);strokeColor=light-dark(#000000,#0E0E0E);" vertex="1" parent="1">
          <mxGeometry x="4394.5" y="3480" width="150" height="70" as="geometry" />
        </mxCell>
        <mxCell id="sXJf7j9ku1CoHAVVAAhq-204" value="&lt;font style=&quot;color: light-dark(rgb(0, 0, 0), rgb(0, 0, 0)); font-size: 22px;&quot;&gt;Details&lt;/font&gt;" style="rounded=0;whiteSpace=wrap;html=1;strokeWidth=1;fillColor=light-dark(#FFFFFF,#F2F2F2);strokeColor=light-dark(#000000,#0E0E0E);" vertex="1" parent="1">
          <mxGeometry x="4394.5" y="3780" width="150" height="70" as="geometry" />
        </mxCell>
        <mxCell id="sXJf7j9ku1CoHAVVAAhq-205" value="&lt;font style=&quot;color: light-dark(rgb(0, 0, 0), rgb(0, 0, 0)); font-size: 22px;&quot;&gt;Details&lt;/font&gt;" style="rounded=0;whiteSpace=wrap;html=1;strokeWidth=1;fillColor=light-dark(#FFFFFF,#F2F2F2);strokeColor=light-dark(#000000,#0E0E0E);" vertex="1" parent="1">
          <mxGeometry x="5149.5" y="3180" width="150" height="70" as="geometry" />
        </mxCell>
        <mxCell id="sXJf7j9ku1CoHAVVAAhq-206" value="&lt;font style=&quot;color: light-dark(rgb(0, 0, 0), rgb(0, 0, 0)); font-size: 22px;&quot;&gt;Details&lt;/font&gt;" style="rounded=0;whiteSpace=wrap;html=1;strokeWidth=1;fillColor=light-dark(#FFFFFF,#F2F2F2);strokeColor=light-dark(#000000,#0E0E0E);" vertex="1" parent="1">
          <mxGeometry x="5149.5" y="3480" width="150" height="70" as="geometry" />
        </mxCell>
        <mxCell id="sXJf7j9ku1CoHAVVAAhq-207" value="&lt;font style=&quot;color: light-dark(rgb(0, 0, 0), rgb(0, 0, 0)); font-size: 22px;&quot;&gt;Details&lt;/font&gt;" style="rounded=0;whiteSpace=wrap;html=1;strokeWidth=1;fillColor=light-dark(#FFFFFF,#F2F2F2);strokeColor=light-dark(#000000,#0E0E0E);" vertex="1" parent="1">
          <mxGeometry x="5149.5" y="3780" width="150" height="70" as="geometry" />
        </mxCell>
        <mxCell id="sXJf7j9ku1CoHAVVAAhq-208" value="&lt;font style=&quot;color: light-dark(rgb(0, 0, 0), rgb(255, 0, 0)); font-size: 18px;&quot;&gt;Verhuurd&lt;/font&gt;" style="text;html=1;align=center;verticalAlign=middle;whiteSpace=wrap;rounded=0;" vertex="1" parent="1">
          <mxGeometry x="4040" y="2980" width="130" height="40" as="geometry" />
        </mxCell>
        <mxCell id="sXJf7j9ku1CoHAVVAAhq-209" value="&lt;font style=&quot;font-size: 18px; color: light-dark(rgb(0, 0, 0), rgb(13, 163, 99));&quot;&gt;Beschikbaar&lt;/font&gt;" style="text;html=1;align=center;verticalAlign=middle;whiteSpace=wrap;rounded=0;" vertex="1" parent="1">
          <mxGeometry x="4800" y="2980" width="130" height="40" as="geometry" />
        </mxCell>
        <mxCell id="sXJf7j9ku1CoHAVVAAhq-211" value="&lt;font style=&quot;color: light-dark(rgb(0, 0, 0), rgb(255, 0, 0)); font-size: 18px;&quot;&gt;Verhuurd aan: (klantnaam)&lt;/font&gt;" style="text;html=1;align=center;verticalAlign=middle;whiteSpace=wrap;rounded=0;" vertex="1" parent="1">
          <mxGeometry x="4120" y="3140" width="280" height="40" as="geometry" />
        </mxCell>
        <mxCell id="sXJf7j9ku1CoHAVVAAhq-213" value="&lt;font style=&quot;font-size: 40px;&quot;&gt;Klant scherm&lt;/font&gt;" style="text;html=1;align=center;verticalAlign=middle;whiteSpace=wrap;rounded=0;" vertex="1" parent="1">
          <mxGeometry x="1020" y="2460" width="1560" height="80" as="geometry" />
        </mxCell>
        <mxCell id="sXJf7j9ku1CoHAVVAAhq-214" value="&lt;font style=&quot;font-size: 40px;&quot;&gt;Film scherm&lt;/font&gt;" style="text;html=1;align=center;verticalAlign=middle;whiteSpace=wrap;rounded=0;" vertex="1" parent="1">
          <mxGeometry x="3464.5" y="2450" width="1560" height="80" as="geometry" />
        </mxCell>
        <mxCell id="sXJf7j9ku1CoHAVVAAhq-215" value="" style="rounded=0;whiteSpace=wrap;html=1;fillColor=light-dark(#f5f5f5, #ffffff);strokeColor=#666666;gradientColor=light-dark(#b3b3b3, #ffffff);" vertex="1" parent="1">
          <mxGeometry x="655.5" y="4230" width="2350" height="1460" as="geometry" />
        </mxCell>
        <mxCell id="sXJf7j9ku1CoHAVVAAhq-216" style="edgeStyle=orthogonalEdgeStyle;rounded=0;orthogonalLoop=1;jettySize=auto;html=1;" edge="1" parent="1" target="sXJf7j9ku1CoHAVVAAhq-215">
          <mxGeometry relative="1" as="geometry">
            <mxPoint x="1830.5" y="4310" as="sourcePoint" />
          </mxGeometry>
        </mxCell>
        <mxCell id="sXJf7j9ku1CoHAVVAAhq-217" value="" style="rounded=0;whiteSpace=wrap;html=1;fillColor=light-dark(#f5f5f5, #ffffff);strokeColor=#666666;gradientColor=light-dark(#b3b3b3, #ffffff);" vertex="1" parent="1">
          <mxGeometry x="655.5" y="4230" width="2350" height="90" as="geometry" />
        </mxCell>
        <mxCell id="sXJf7j9ku1CoHAVVAAhq-218" value="&lt;font style=&quot;color: light-dark(rgb(0, 0, 0), rgb(0, 0, 0)); font-size: 33px;&quot;&gt;Titel&lt;/font&gt;" style="text;html=1;align=center;verticalAlign=middle;whiteSpace=wrap;rounded=0;" vertex="1" parent="1">
          <mxGeometry x="665.5" y="4240" width="200" height="60" as="geometry" />
        </mxCell>
        <mxCell id="sXJf7j9ku1CoHAVVAAhq-220" value="" style="rounded=0;whiteSpace=wrap;html=1;strokeWidth=1;fillColor=light-dark(#FFFFFF,#F2F2F2);strokeColor=light-dark(#000000,#0E0E0E);" vertex="1" parent="1">
          <mxGeometry x="763" y="4480" width="547" height="1110" as="geometry" />
        </mxCell>
        <mxCell id="sXJf7j9ku1CoHAVVAAhq-221" value="&lt;font style=&quot;color: light-dark(rgb(0, 0, 0), rgb(0, 0, 0)); font-size: 20px;&quot;&gt;USER&lt;/font&gt;" style="rounded=0;whiteSpace=wrap;html=1;strokeWidth=1;fillColor=light-dark(#FFFFFF,#F2F2F2);strokeColor=light-dark(#000000,#151515);" vertex="1" parent="1">
          <mxGeometry x="2840.5" y="4250" width="130" height="50" as="geometry" />
        </mxCell>
        <mxCell id="sXJf7j9ku1CoHAVVAAhq-222" value="&lt;font style=&quot;color: light-dark(rgb(0, 0, 0), rgb(0, 0, 0)); font-size: 33px;&quot;&gt;klanten&lt;/font&gt;" style="text;html=1;align=center;verticalAlign=middle;whiteSpace=wrap;rounded=0;" vertex="1" parent="1">
          <mxGeometry x="875.5" y="4240" width="200" height="60" as="geometry" />
        </mxCell>
        <mxCell id="sXJf7j9ku1CoHAVVAAhq-223" value="&lt;font style=&quot;color: light-dark(rgb(0, 0, 0), rgb(0, 0, 0)); font-size: 33px;&quot;&gt;films&lt;/font&gt;" style="text;html=1;align=center;verticalAlign=middle;whiteSpace=wrap;rounded=0;" vertex="1" parent="1">
          <mxGeometry x="1085.5" y="4245" width="200" height="60" as="geometry" />
        </mxCell>
        <mxCell id="sXJf7j9ku1CoHAVVAAhq-224" value="&lt;font style=&quot;color: light-dark(rgb(0, 0, 0), rgb(0, 0, 0)); font-size: 33px;&quot;&gt;about&lt;/font&gt;" style="text;html=1;align=center;verticalAlign=middle;whiteSpace=wrap;rounded=0;" vertex="1" parent="1">
          <mxGeometry x="1300.5" y="4245" width="200" height="60" as="geometry" />
        </mxCell>
        <mxCell id="sXJf7j9ku1CoHAVVAAhq-225" value="&lt;font style=&quot;color: light-dark(rgb(0, 0, 0), rgb(0, 0, 0)); font-size: 19px;&quot;&gt;(bij klik komt er profiel en logout optie)&lt;/font&gt;" style="text;html=1;align=center;verticalAlign=middle;whiteSpace=wrap;rounded=0;" vertex="1" parent="1">
          <mxGeometry x="2750.5" y="4320" width="250" height="75" as="geometry" />
        </mxCell>
        <mxCell id="sXJf7j9ku1CoHAVVAAhq-237" value="" style="rounded=0;whiteSpace=wrap;html=1;fillColor=light-dark(#f5f5f5, #ffffff);strokeColor=#666666;gradientColor=light-dark(#b3b3b3, #ffffff);" vertex="1" parent="1">
          <mxGeometry x="3117" y="4230" width="2350" height="1460" as="geometry" />
        </mxCell>
        <mxCell id="sXJf7j9ku1CoHAVVAAhq-238" style="edgeStyle=orthogonalEdgeStyle;rounded=0;orthogonalLoop=1;jettySize=auto;html=1;" edge="1" parent="1" target="sXJf7j9ku1CoHAVVAAhq-237">
          <mxGeometry relative="1" as="geometry">
            <mxPoint x="4292" y="4310" as="sourcePoint" />
          </mxGeometry>
        </mxCell>
        <mxCell id="sXJf7j9ku1CoHAVVAAhq-239" value="" style="rounded=0;whiteSpace=wrap;html=1;fillColor=light-dark(#f5f5f5, #ffffff);strokeColor=#666666;gradientColor=light-dark(#b3b3b3, #ffffff);" vertex="1" parent="1">
          <mxGeometry x="3117" y="4230" width="2350" height="90" as="geometry" />
        </mxCell>
        <mxCell id="sXJf7j9ku1CoHAVVAAhq-240" value="&lt;font style=&quot;color: light-dark(rgb(0, 0, 0), rgb(0, 0, 0)); font-size: 33px;&quot;&gt;Titel&lt;/font&gt;" style="text;html=1;align=center;verticalAlign=middle;whiteSpace=wrap;rounded=0;" vertex="1" parent="1">
          <mxGeometry x="3127" y="4240" width="200" height="60" as="geometry" />
        </mxCell>
        <mxCell id="sXJf7j9ku1CoHAVVAAhq-242" value="" style="rounded=0;whiteSpace=wrap;html=1;strokeWidth=1;fillColor=light-dark(#FFFFFF,#F2F2F2);strokeColor=light-dark(#000000,#0E0E0E);" vertex="1" parent="1">
          <mxGeometry x="3372" y="4470" width="905.5" height="1110" as="geometry" />
        </mxCell>
        <mxCell id="sXJf7j9ku1CoHAVVAAhq-243" value="&lt;font style=&quot;color: light-dark(rgb(0, 0, 0), rgb(0, 0, 0)); font-size: 20px;&quot;&gt;USER&lt;/font&gt;" style="rounded=0;whiteSpace=wrap;html=1;strokeWidth=1;fillColor=light-dark(#FFFFFF,#F2F2F2);strokeColor=light-dark(#000000,#151515);" vertex="1" parent="1">
          <mxGeometry x="5302" y="4250" width="130" height="50" as="geometry" />
        </mxCell>
        <mxCell id="sXJf7j9ku1CoHAVVAAhq-244" value="&lt;font style=&quot;color: light-dark(rgb(0, 0, 0), rgb(0, 0, 0)); font-size: 33px;&quot;&gt;klanten&lt;/font&gt;" style="text;html=1;align=center;verticalAlign=middle;whiteSpace=wrap;rounded=0;" vertex="1" parent="1">
          <mxGeometry x="3337" y="4240" width="200" height="60" as="geometry" />
        </mxCell>
        <mxCell id="sXJf7j9ku1CoHAVVAAhq-245" value="&lt;font style=&quot;color: light-dark(rgb(0, 0, 0), rgb(0, 0, 0)); font-size: 33px;&quot;&gt;films&lt;/font&gt;" style="text;html=1;align=center;verticalAlign=middle;whiteSpace=wrap;rounded=0;" vertex="1" parent="1">
          <mxGeometry x="3547" y="4245" width="200" height="60" as="geometry" />
        </mxCell>
        <mxCell id="sXJf7j9ku1CoHAVVAAhq-246" value="&lt;font style=&quot;color: light-dark(rgb(0, 0, 0), rgb(0, 0, 0)); font-size: 33px;&quot;&gt;about&lt;/font&gt;" style="text;html=1;align=center;verticalAlign=middle;whiteSpace=wrap;rounded=0;" vertex="1" parent="1">
          <mxGeometry x="3762" y="4245" width="200" height="60" as="geometry" />
        </mxCell>
        <mxCell id="sXJf7j9ku1CoHAVVAAhq-247" value="&lt;font style=&quot;color: light-dark(rgb(0, 0, 0), rgb(0, 0, 0)); font-size: 19px;&quot;&gt;(bij klik komt er profiel en logout optie)&lt;/font&gt;" style="text;html=1;align=center;verticalAlign=middle;whiteSpace=wrap;rounded=0;" vertex="1" parent="1">
          <mxGeometry x="5212" y="4320" width="250" height="75" as="geometry" />
        </mxCell>
        <mxCell id="sXJf7j9ku1CoHAVVAAhq-279" value="&lt;font style=&quot;font-size: 40px;&quot;&gt;Klant detail scherm&lt;/font&gt;" style="text;html=1;align=center;verticalAlign=middle;whiteSpace=wrap;rounded=0;" vertex="1" parent="1">
          <mxGeometry x="973" y="4130" width="1560" height="80" as="geometry" />
        </mxCell>
        <mxCell id="sXJf7j9ku1CoHAVVAAhq-280" value="&lt;font style=&quot;font-size: 40px;&quot;&gt;Film detail scherm&lt;/font&gt;" style="text;html=1;align=center;verticalAlign=middle;whiteSpace=wrap;rounded=0;" vertex="1" parent="1">
          <mxGeometry x="3417.5" y="4120" width="1560" height="80" as="geometry" />
        </mxCell>
        <mxCell id="sXJf7j9ku1CoHAVVAAhq-282" value="" style="rounded=0;whiteSpace=wrap;html=1;strokeWidth=1;fillColor=light-dark(#FFFFFF,#F2F2F2);strokeColor=light-dark(#000000,#0E0E0E);" vertex="1" parent="1">
          <mxGeometry x="4379.5" y="4470" width="905.5" height="1110" as="geometry" />
        </mxCell>
        <mxCell id="sXJf7j9ku1CoHAVVAAhq-284" value="&lt;font style=&quot;color: light-dark(rgb(0, 0, 0), rgb(11, 128, 81)); font-size: 34px;&quot;&gt;&lt;b style=&quot;&quot;&gt;Beschikbaar&lt;/b&gt;&lt;/font&gt;" style="rounded=0;whiteSpace=wrap;html=1;strokeWidth=1;fillColor=light-dark(#FFFFFF,#F2F2F2);strokeColor=light-dark(#000000,#0E0E0E);" vertex="1" parent="1">
          <mxGeometry x="4379.5" y="4460" width="905.5" height="100" as="geometry" />
        </mxCell>
        <mxCell id="sXJf7j9ku1CoHAVVAAhq-285" value="&lt;font style=&quot;font-size: 34px; color: light-dark(rgb(0, 0, 0), rgb(0, 0, 0));&quot;&gt;&lt;b style=&quot;&quot;&gt;Film details&lt;/b&gt;&lt;/font&gt;" style="rounded=0;whiteSpace=wrap;html=1;strokeWidth=1;fillColor=light-dark(#FFFFFF,#F2F2F2);strokeColor=light-dark(#000000,#0E0E0E);" vertex="1" parent="1">
          <mxGeometry x="3372" y="4470" width="905.5" height="100" as="geometry" />
        </mxCell>
        <mxCell id="sXJf7j9ku1CoHAVVAAhq-287" value="" style="rounded=0;whiteSpace=wrap;html=1;strokeWidth=1;fillColor=light-dark(#FFFFFF,#F2F2F2);strokeColor=light-dark(#000000,#0E0E0E);" vertex="1" parent="1">
          <mxGeometry x="3389.88" y="4680" width="870" height="80" as="geometry" />
        </mxCell>
        <mxCell id="sXJf7j9ku1CoHAVVAAhq-288" value="" style="rounded=0;whiteSpace=wrap;html=1;strokeWidth=1;fillColor=light-dark(#FFFFFF,#F2F2F2);strokeColor=light-dark(#000000,#0E0E0E);" vertex="1" parent="1">
          <mxGeometry x="3389.63" y="4780" width="870" height="80" as="geometry" />
        </mxCell>
        <mxCell id="sXJf7j9ku1CoHAVVAAhq-289" value="" style="rounded=0;whiteSpace=wrap;html=1;strokeWidth=1;fillColor=light-dark(#FFFFFF,#F2F2F2);strokeColor=light-dark(#000000,#0E0E0E);" vertex="1" parent="1">
          <mxGeometry x="3389.63" y="4890" width="870" height="80" as="geometry" />
        </mxCell>
        <mxCell id="sXJf7j9ku1CoHAVVAAhq-290" value="&lt;font style=&quot;color: light-dark(rgb(0, 0, 0), rgb(0, 0, 0)); font-size: 29px;&quot;&gt;Terug&lt;/font&gt;" style="rounded=0;whiteSpace=wrap;html=1;strokeWidth=1;fillColor=light-dark(#FFFFFF,#F2F2F2);strokeColor=light-dark(#000000,#0E0E0E);" vertex="1" parent="1">
          <mxGeometry x="3610" y="5440" width="460" height="80" as="geometry" />
        </mxCell>
        <mxCell id="sXJf7j9ku1CoHAVVAAhq-291" value="Lorem ipsum dolor sit amet, consectetur adipiscing elit, sed do eiusmod tempor incididunt ut labore et dolore magna aliqua. Ut enim ad minim veniam, quis nostrud exercitation ullamco laboris nisi ut aliquip ex ea commodo consequat. Duis aute irure dolor in reprehenderit in voluptate velit esse cillum dolore eu fugiat nulla pariatur. Excepteur sint occaecat cupidatat non proident, sunt in culpa qui officia deserunt mollit anim id est laborum.Lorem ipsum dolor sit amet, consectetur adipiscing elit, sed do eiusmod tempor incididunt ut labore et dolore magna aliqua. Ut enim ad minim veniam, quis nostrud exercitation ullamco laboris nisi ut aliquip ex ea commodo consequat. Duis aute irure dolor in reprehenderit in voluptate velit esse cillum dolore eu fugiat nulla pariatur. Excepteur sint occaecat cupidatat non proident, sunt in culpa qui officia deserunt mollit anim id est laborum.Lorem ipsum dolor sit amet, consectetur adipiscing elit, sed do eiusmod tempor incididunt ut labore et dolore magna aliqua. Ut enim ad minim veniam, quis nostrud exercitation ullamco laboris nisi ut aliquip ex ea commodo consequat. Duis aute irure dolor in reprehenderit in voluptate velit esse cillum dolore eu fugiat nulla pariatur. Excepteur sint occaecat cupidatat non proident, sunt in culpa qui officia deserunt mollit anim id est laborum.&#xa;" style="text;whiteSpace=wrap;fontColor=light-dark(#000000,#000000);align=center;fontSize=17;" vertex="1" parent="1">
          <mxGeometry x="3425.75" y="5080" width="798" height="220" as="geometry" />
        </mxCell>
        <mxCell id="sXJf7j9ku1CoHAVVAAhq-293" value="&lt;font style=&quot;color: light-dark(rgb(0, 0, 0), rgb(0, 0, 0)); font-size: 24px;&quot;&gt;Klantnaam:&lt;/font&gt;" style="rounded=0;whiteSpace=wrap;html=1;strokeWidth=1;fillColor=light-dark(#FFFFFF,#F2F2F2);strokeColor=light-dark(#000000,#0E0E0E);align=left;" vertex="1" parent="1">
          <mxGeometry x="4397.25" y="4800" width="870" height="80" as="geometry" />
        </mxCell>
        <mxCell id="sXJf7j9ku1CoHAVVAAhq-294" value="&lt;font style=&quot;color: light-dark(rgb(0, 0, 0), rgb(0, 0, 0)); font-size: 24px;&quot;&gt;VERHUUR&lt;/font&gt;" style="rounded=0;whiteSpace=wrap;html=1;strokeWidth=1;fillColor=light-dark(#FFFFFF,#F2F2F2);strokeColor=light-dark(#000000,#0E0E0E);align=center;" vertex="1" parent="1">
          <mxGeometry x="4510" y="4910" width="650" height="80" as="geometry" />
        </mxCell>
        <mxCell id="sXJf7j9ku1CoHAVVAAhq-295" value="&lt;font style=&quot;color: light-dark(rgb(0, 0, 0), rgb(0, 0, 0)); font-size: 33px;&quot;&gt;Titel&lt;/font&gt;" style="text;html=1;align=center;verticalAlign=middle;whiteSpace=wrap;rounded=0;" vertex="1" parent="1">
          <mxGeometry x="3320" y="4600" width="1010" height="70" as="geometry" />
        </mxCell>
        <mxCell id="sXJf7j9ku1CoHAVVAAhq-297" value="" style="rounded=0;whiteSpace=wrap;html=1;strokeWidth=1;fillColor=light-dark(#FFFFFF,#F2F2F2);strokeColor=light-dark(#000000,#0E0E0E);" vertex="1" parent="1">
          <mxGeometry x="1450" y="4480" width="1440" height="1110" as="geometry" />
        </mxCell>
        <mxCell id="sXJf7j9ku1CoHAVVAAhq-298" value="&lt;font style=&quot;font-size: 34px; color: light-dark(rgb(0, 0, 0), rgb(0, 0, 0));&quot;&gt;&lt;b style=&quot;&quot;&gt;Klant profiel&lt;/b&gt;&lt;/font&gt;" style="rounded=0;whiteSpace=wrap;html=1;strokeWidth=1;fillColor=light-dark(#FFFFFF,#F2F2F2);strokeColor=light-dark(#000000,#0E0E0E);" vertex="1" parent="1">
          <mxGeometry x="760.5" y="4480" width="549.5" height="100" as="geometry" />
        </mxCell>
        <mxCell id="sXJf7j9ku1CoHAVVAAhq-299" value="&lt;font style=&quot;color: light-dark(rgb(0, 0, 0), rgb(0, 0, 0)); font-size: 25px;&quot;&gt;Naam&lt;/font&gt;" style="rounded=0;whiteSpace=wrap;html=1;strokeWidth=1;fillColor=light-dark(#FFFFFF,#F2F2F2);strokeColor=light-dark(#000000,#0E0E0E);align=left;" vertex="1" parent="1">
          <mxGeometry x="790.25" y="4620" width="499.75" height="60" as="geometry" />
        </mxCell>
        <mxCell id="sXJf7j9ku1CoHAVVAAhq-302" value="&lt;font style=&quot;color: light-dark(rgb(0, 0, 0), rgb(0, 0, 0)); font-size: 25px;&quot;&gt;Info&lt;/font&gt;" style="rounded=0;whiteSpace=wrap;html=1;strokeWidth=1;fillColor=light-dark(#FFFFFF,#F2F2F2);strokeColor=light-dark(#000000,#0E0E0E);align=left;" vertex="1" parent="1">
          <mxGeometry x="790.25" y="4720" width="499.75" height="60" as="geometry" />
        </mxCell>
        <mxCell id="sXJf7j9ku1CoHAVVAAhq-303" value="&lt;font style=&quot;color: light-dark(rgb(0, 0, 0), rgb(0, 0, 0)); font-size: 25px;&quot;&gt;Info&lt;/font&gt;" style="rounded=0;whiteSpace=wrap;html=1;strokeWidth=1;fillColor=light-dark(#FFFFFF,#F2F2F2);strokeColor=light-dark(#000000,#0E0E0E);align=left;" vertex="1" parent="1">
          <mxGeometry x="790.25" y="4810" width="499.75" height="60" as="geometry" />
        </mxCell>
        <mxCell id="sXJf7j9ku1CoHAVVAAhq-304" value="&lt;font style=&quot;color: light-dark(rgb(0, 0, 0), rgb(0, 0, 0)); font-size: 25px;&quot;&gt;Bewerken&lt;/font&gt;" style="rounded=0;whiteSpace=wrap;html=1;strokeWidth=1;fillColor=light-dark(#FFFFFF,#F2F2F2);strokeColor=light-dark(#000000,#0E0E0E);align=center;" vertex="1" parent="1">
          <mxGeometry x="790.25" y="5290" width="499.75" height="60" as="geometry" />
        </mxCell>
        <mxCell id="sXJf7j9ku1CoHAVVAAhq-305" value="&lt;font style=&quot;color: light-dark(rgb(0, 0, 0), rgb(0, 0, 0)); font-size: 25px;&quot;&gt;Verwijderen&lt;/font&gt;" style="rounded=0;whiteSpace=wrap;html=1;strokeWidth=1;fillColor=light-dark(#FFFFFF,#F2F2F2);strokeColor=light-dark(#000000,#0E0E0E);align=center;" vertex="1" parent="1">
          <mxGeometry x="790.25" y="5370" width="499.75" height="60" as="geometry" />
        </mxCell>
        <mxCell id="sXJf7j9ku1CoHAVVAAhq-306" value="&lt;font style=&quot;color: light-dark(rgb(0, 0, 0), rgb(0, 0, 0)); font-size: 25px;&quot;&gt;Terug&lt;/font&gt;" style="rounded=0;whiteSpace=wrap;html=1;strokeWidth=1;fillColor=light-dark(#FFFFFF,#F2F2F2);strokeColor=light-dark(#000000,#0E0E0E);align=center;" vertex="1" parent="1">
          <mxGeometry x="786.62" y="5500" width="499.75" height="60" as="geometry" />
        </mxCell>
        <mxCell id="sXJf7j9ku1CoHAVVAAhq-307" value="&lt;font style=&quot;font-size: 34px; color: light-dark(rgb(0, 0, 0), rgb(0, 0, 0));&quot;&gt;&lt;b style=&quot;&quot;&gt;Verhuurgeschiedenis&lt;/b&gt;&lt;/font&gt;" style="rounded=0;whiteSpace=wrap;html=1;strokeWidth=1;fillColor=light-dark(#FFFFFF,#F2F2F2);strokeColor=light-dark(#000000,#0E0E0E);" vertex="1" parent="1">
          <mxGeometry x="1450" y="4480" width="1440" height="100" as="geometry" />
        </mxCell>
        <mxCell id="sXJf7j9ku1CoHAVVAAhq-308" value="" style="rounded=0;whiteSpace=wrap;html=1;strokeWidth=1;fillColor=light-dark(#FFFFFF,#F2F2F2);strokeColor=light-dark(#000000,#0E0E0E);" vertex="1" parent="1">
          <mxGeometry x="1498.25" y="4620" width="1341.75" height="80" as="geometry" />
        </mxCell>
        <mxCell id="sXJf7j9ku1CoHAVVAAhq-309" value="" style="rounded=0;whiteSpace=wrap;html=1;strokeWidth=1;fillColor=light-dark(#FFFFFF,#F2F2F2);strokeColor=light-dark(#000000,#0E0E0E);" vertex="1" parent="1">
          <mxGeometry x="1498" y="4720" width="1342" height="80" as="geometry" />
        </mxCell>
        <mxCell id="sXJf7j9ku1CoHAVVAAhq-310" value="" style="rounded=0;whiteSpace=wrap;html=1;strokeWidth=1;fillColor=light-dark(#FFFFFF,#F2F2F2);strokeColor=light-dark(#000000,#0E0E0E);" vertex="1" parent="1">
          <mxGeometry x="1498" y="4830" width="1342" height="80" as="geometry" />
        </mxCell>
        <mxCell id="sXJf7j9ku1CoHAVVAAhq-311" value="" style="rounded=0;whiteSpace=wrap;html=1;strokeWidth=1;fillColor=light-dark(#FFFFFF,#F2F2F2);strokeColor=light-dark(#000000,#0E0E0E);" vertex="1" parent="1">
          <mxGeometry x="1498.25" y="4950" width="1341.75" height="80" as="geometry" />
        </mxCell>
        <mxCell id="sXJf7j9ku1CoHAVVAAhq-312" value="" style="rounded=0;whiteSpace=wrap;html=1;strokeWidth=1;fillColor=light-dark(#FFFFFF,#F2F2F2);strokeColor=light-dark(#000000,#0E0E0E);" vertex="1" parent="1">
          <mxGeometry x="1498" y="5050" width="1342" height="80" as="geometry" />
        </mxCell>
        <mxCell id="sXJf7j9ku1CoHAVVAAhq-313" value="" style="rounded=0;whiteSpace=wrap;html=1;strokeWidth=1;fillColor=light-dark(#FFFFFF,#F2F2F2);strokeColor=light-dark(#000000,#0E0E0E);" vertex="1" parent="1">
          <mxGeometry x="1498" y="5160" width="1342" height="80" as="geometry" />
        </mxCell>
        <mxCell id="sXJf7j9ku1CoHAVVAAhq-314" value="" style="rounded=0;whiteSpace=wrap;html=1;strokeWidth=1;fillColor=light-dark(#FFFFFF,#F2F2F2);strokeColor=light-dark(#000000,#0E0E0E);" vertex="1" parent="1">
          <mxGeometry x="1503" y="5280" width="1342" height="80" as="geometry" />
        </mxCell>
        <mxCell id="sXJf7j9ku1CoHAVVAAhq-315" value="" style="rounded=0;whiteSpace=wrap;html=1;strokeWidth=1;fillColor=light-dark(#FFFFFF,#F2F2F2);strokeColor=light-dark(#000000,#0E0E0E);" vertex="1" parent="1">
          <mxGeometry x="1503" y="5390" width="1342" height="80" as="geometry" />
        </mxCell>
      </root>
    </mxGraphModel>
  </diagram>
</mxfile>
